<svg
  width="136.014"
  height="42.702"
  viewBox="0 0 136.014 42.702"
  xmlns="http://www.w3.org/2000/svg"
>
  <g
    id="svgGroup"
    stroke-linecap="round"
    fill-rule="evenodd"
    font-size="9pt"
    stroke="#000000"
    stroke-width="0.25mm"
    fill="#000000"
    style="stroke:#000000;stroke-width:0.25mm;fill:#000000"
  >
    <path
      d="M 135.364 41.151 L 125.514 41.151 Q 125.114 41.151 124.939 40.876 A 0.361 0.361 0 0 1 124.874 40.684 A 0.35 0.35 0 0 1 125.064 40.401 L 126.414 39.551 L 119.114 26.351 L 115.064 30.751 L 115.064 39.101 L 117.014 40.451 Q 117.214 40.601 117.214 40.751 A 0.432 0.432 0 0 1 117.014 41.101 Q 116.814 41.251 116.564 41.251 L 106.714 41.251 A 0.803 0.803 0 0 1 106.239 41.126 Q 106.064 41.001 106.064 40.801 Q 106.064 40.601 106.264 40.451 L 108.214 39.151 L 108.164 5.851 L 106.514 4.701 Q 106.314 4.551 106.314 4.351 Q 106.314 4.151 106.489 4.026 Q 106.664 3.901 106.964 3.901 L 116.814 3.901 Q 117.214 3.901 117.389 4.201 A 0.415 0.415 0 0 1 117.453 4.409 A 0.356 0.356 0 0 1 117.264 4.701 L 115.114 6.101 L 115.064 25.701 L 123.314 16.801 Q 123.914 16.251 123.914 15.451 A 1.683 1.683 0 0 0 123.164 13.951 L 122.064 13.151 Q 121.864 13.001 121.864 12.851 Q 121.864 12.651 122.039 12.526 A 0.803 0.803 0 0 1 122.514 12.401 L 132.364 12.401 Q 132.764 12.401 132.939 12.676 A 0.328 0.328 0 0 1 132.997 12.851 A 0.371 0.371 0 0 1 132.764 13.151 L 129.264 15.501 L 128.464 16.101 L 123.364 21.701 L 133.064 38.501 L 135.814 40.401 Q 136.014 40.551 136.014 40.701 Q 136.014 40.901 135.839 41.026 Q 135.664 41.151 135.364 41.151 Z M 29.764 0.801 L 27.414 2.351 L 27.364 31.351 Q 27.364 34.751 25.414 37.401 Q 23.464 39.951 20.289 41.326 Q 17.114 42.701 13.464 42.701 Q 10.114 42.701 7.114 41.401 Q 4.014 40.051 2.139 37.351 Q 0.264 34.651 0.014 30.851 Q 0.014 28.251 1.164 26.876 Q 2.314 25.501 4.314 25.501 Q 6.064 25.501 7.364 26.776 Q 8.664 28.051 8.664 29.851 Q 8.664 31.651 7.364 32.951 Q 6.064 34.251 4.314 34.251 Q 3.464 34.251 3.064 34.051 Q 4.514 35.801 6.714 36.751 Q 8.914 37.701 11.314 37.701 Q 13.614 37.701 15.614 36.951 Q 17.614 36.151 18.789 34.676 Q 19.964 33.201 19.964 31.351 L 19.864 2.051 L 18.114 0.801 Q 17.914 0.651 17.914 0.501 Q 17.914 0.301 18.139 0.151 Q 18.364 0.001 18.664 0.001 L 29.264 0.001 Q 29.614 0.001 29.814 0.126 Q 30.014 0.251 30.014 0.451 Q 30.014 0.651 29.764 0.801 Z M 95.514 13.151 L 97.064 11.601 Q 97.214 11.451 97.314 11.451 Q 97.664 11.451 97.664 11.951 L 97.664 17.401 L 97.764 17.551 L 97.664 17.451 L 97.664 18.351 Q 97.664 18.701 97.464 18.826 A 0.25 0.25 0 0 1 97.331 18.868 A 0.361 0.361 0 0 1 97.064 18.701 Q 96.714 18.101 95.789 16.951 Q 94.864 15.801 94.314 15.401 Q 91.564 13.351 89.014 13.351 Q 86.414 13.351 84.414 15.201 Q 82.364 17.051 81.214 20.051 Q 80.064 23.051 80.064 26.301 A 21.673 21.673 0 0 0 81.254 34.021 A 11.907 11.907 0 0 0 81.939 35.501 Q 83.814 38.901 87.414 38.901 Q 89.914 38.901 91.764 38.451 A 9.475 9.475 0 0 0 97.347 33.508 A 19.834 19.834 0 0 0 98.064 32.101 Q 98.214 31.751 98.564 31.751 Q 98.864 31.751 98.989 31.951 A 0.497 0.497 0 0 1 99.058 32.22 A 1.034 1.034 0 0 1 99.014 32.501 Q 97.664 36.651 94.589 39.151 Q 91.514 41.651 87.414 41.651 Q 83.614 41.651 80.214 40.151 Q 76.714 38.601 74.664 35.151 Q 72.614 31.701 72.614 26.601 Q 72.614 21.801 74.714 18.201 Q 76.714 14.701 80.014 12.826 Q 83.314 10.951 87.014 10.951 Q 91.114 10.951 94.164 13.251 Q 94.364 13.451 94.764 13.451 Q 95.214 13.451 95.514 13.151 Z M 54.014 21.801 L 54.014 20.601 Q 54.014 18.351 51.914 16.901 Q 49.814 15.451 46.614 15.451 Q 42.714 15.451 39.164 17.651 Q 39.114 17.701 38.914 17.701 Q 38.664 17.701 38.514 17.451 A 0.413 0.413 0 0 1 38.45 17.237 A 0.457 0.457 0 0 1 38.564 16.951 Q 40.464 14.851 43.464 13.701 Q 46.464 12.551 49.814 12.551 Q 52.764 12.551 55.164 13.351 Q 57.714 14.201 59.189 15.751 Q 60.664 17.301 60.664 19.351 L 60.664 34.801 Q 60.664 36.001 61.064 36.626 A 1.285 1.285 0 0 0 62.214 37.251 Q 63.114 37.251 64.264 36.351 Q 65.414 35.451 66.314 33.951 Q 66.464 33.751 66.664 33.751 Q 66.864 33.751 67.014 33.901 Q 67.164 34.051 67.114 34.301 Q 66.664 36.501 65.364 38.201 Q 64.064 39.751 62.364 40.576 Q 60.664 41.401 58.864 41.401 Q 57.464 41.401 56.339 40.876 Q 55.214 40.351 54.614 39.301 Q 50.964 41.151 47.064 41.151 Q 42.914 41.151 40.189 39.201 Q 37.464 37.251 37.464 34.051 Q 37.464 29.401 41.989 26.226 A 26.547 26.547 0 0 1 51.306 22.338 A 43.942 43.942 0 0 1 54.014 21.801 Z M 54.014 37.051 L 54.014 24.151 Q 49.314 25.301 46.839 27.726 Q 44.364 30.151 44.364 33.451 Q 44.364 35.651 45.564 36.801 Q 46.764 37.951 49.064 37.951 Q 51.114 37.951 54.014 37.051 Z"
    />
  </g>
</svg>