<svg width="372.35" height="42.762" viewBox="0 0 372.35 42.762" xmlns="http://www.w3.org/2000/svg"><g id="svgGroup" stroke-linecap="round" fill-rule="evenodd" font-size="9pt" stroke="#000000" stroke-width="0.25mm" fill="#000000" style="stroke:#000000;stroke-width:0.25mm;fill:#000000"><path d="M 371.7 41.211 L 361.85 41.211 Q 361.45 41.211 361.275 40.936 A 0.361 0.361 0 0 1 361.211 40.744 A 0.35 0.35 0 0 1 361.4 40.461 L 362.75 39.611 L 355.45 26.411 L 351.4 30.811 L 351.4 39.161 L 353.35 40.511 Q 353.55 40.661 353.55 40.811 A 0.432 0.432 0 0 1 353.35 41.161 Q 353.15 41.311 352.9 41.311 L 343.05 41.311 Q 342.75 41.311 342.575 41.186 Q 342.4 41.061 342.4 40.861 Q 342.4 40.661 342.6 40.511 L 344.55 39.211 L 344.5 5.911 L 342.85 4.761 Q 342.65 4.611 342.65 4.411 Q 342.65 4.211 342.825 4.086 Q 343 3.961 343.3 3.961 L 353.15 3.961 Q 353.55 3.961 353.725 4.261 A 0.415 0.415 0 0 1 353.789 4.469 A 0.356 0.356 0 0 1 353.6 4.761 L 351.45 6.161 L 351.4 25.761 L 359.65 16.861 Q 360.25 16.311 360.25 15.511 A 1.683 1.683 0 0 0 359.5 14.011 L 358.4 13.211 Q 358.2 13.061 358.2 12.911 Q 358.2 12.711 358.375 12.586 A 0.803 0.803 0 0 1 358.85 12.461 L 368.7 12.461 Q 369.1 12.461 369.275 12.736 A 0.328 0.328 0 0 1 369.333 12.911 A 0.371 0.371 0 0 1 369.1 13.211 L 365.6 15.561 L 364.8 16.161 L 359.7 21.761 L 369.4 38.561 L 372.15 40.461 Q 372.35 40.611 372.35 40.761 Q 372.35 40.961 372.175 41.086 Q 372 41.211 371.7 41.211 Z M 106.25 40.711 L 97.3 40.711 Q 96.9 40.711 96.75 40.436 Q 96.6 40.161 96.9 39.961 L 98.4 38.861 L 98.4 21.611 Q 98.4 19.111 96.5 17.811 Q 94.6 16.511 91.35 16.511 Q 88.35 16.511 85.2 17.611 L 85.15 38.661 L 87 39.961 Q 87.15 40.111 87.15 40.261 Q 87.15 40.411 87 40.561 Q 86.85 40.711 86.55 40.711 L 77.25 40.711 Q 76.85 40.711 76.675 40.436 A 0.361 0.361 0 0 1 76.611 40.244 A 0.35 0.35 0 0 1 76.8 39.961 L 78.65 38.761 L 78.65 14.111 L 77.05 12.961 Q 76.85 12.811 76.85 12.661 Q 76.85 12.511 77.05 12.361 Q 77.25 12.211 77.5 12.211 L 86.8 12.211 Q 87.2 12.211 87.375 12.486 A 0.328 0.328 0 0 1 87.433 12.661 A 0.371 0.371 0 0 1 87.2 12.961 L 85.2 14.311 L 85.2 15.611 Q 87.3 14.361 89.875 13.661 Q 92.45 12.961 95 12.961 Q 99.55 12.961 102.375 15.211 Q 105.2 17.461 105.2 21.711 L 105.2 38.961 L 106.65 39.961 Q 106.85 40.111 106.85 40.261 Q 106.85 40.411 106.675 40.561 Q 106.5 40.711 106.25 40.711 Z M 266.1 0.861 L 263.75 2.411 L 263.7 31.411 Q 263.7 34.811 261.75 37.461 Q 259.8 40.011 256.625 41.386 Q 253.45 42.761 249.8 42.761 Q 246.45 42.761 243.45 41.461 Q 240.35 40.111 238.475 37.411 Q 236.6 34.711 236.35 30.911 Q 236.35 28.311 237.5 26.936 Q 238.65 25.561 240.65 25.561 Q 242.4 25.561 243.7 26.836 Q 245 28.111 245 29.911 Q 245 31.711 243.7 33.011 Q 242.4 34.311 240.65 34.311 Q 239.8 34.311 239.4 34.111 Q 240.85 35.861 243.05 36.811 Q 245.25 37.761 247.65 37.761 Q 249.95 37.761 251.95 37.011 Q 253.95 36.211 255.125 34.736 Q 256.3 33.261 256.3 31.411 L 256.2 2.111 L 254.45 0.861 Q 254.25 0.711 254.25 0.561 Q 254.25 0.361 254.475 0.211 Q 254.7 0.061 255 0.061 L 265.6 0.061 Q 265.95 0.061 266.15 0.186 Q 266.35 0.311 266.35 0.511 Q 266.35 0.711 266.1 0.861 Z M 140.05 12.911 L 137.8 14.411 L 123.85 37.961 L 134.35 37.961 Q 136.15 37.961 137.35 36.361 L 138.85 34.011 A 0.432 0.432 0 0 1 139.2 33.811 Q 139.4 33.811 139.525 33.986 A 0.803 0.803 0 0 1 139.65 34.461 L 139.65 40.311 Q 139.65 40.511 139.525 40.636 Q 139.4 40.761 139.2 40.761 L 115 40.761 A 0.803 0.803 0 0 1 114.525 40.636 Q 114.35 40.511 114.35 40.311 Q 114.35 40.111 114.55 39.961 L 117.1 38.311 L 130.65 14.911 L 120.75 14.911 Q 119.85 14.911 119.05 15.336 Q 118.25 15.761 117.75 16.511 L 116.2 18.861 Q 116.05 19.061 115.9 19.061 Q 115.75 19.061 115.6 18.861 Q 115.45 18.661 115.45 18.411 L 115.4 12.561 Q 115.4 12.361 115.525 12.236 Q 115.65 12.111 115.85 12.111 L 139.6 12.111 A 0.803 0.803 0 0 1 140.075 12.236 Q 140.25 12.361 140.25 12.561 A 0.432 0.432 0 0 1 140.05 12.911 Z M 19.3 25.111 L 9.75 25.111 L 9.7 39.161 L 11.8 40.611 Q 12 40.761 12 40.961 Q 12 41.161 11.8 41.311 Q 11.6 41.461 11.3 41.461 L 0.65 41.461 Q 0.35 41.461 0.175 41.311 Q 0 41.161 0 40.961 Q 0 40.761 0.2 40.611 L 2.3 39.211 L 2.35 2.211 L 0.5 0.911 Q 0.3 0.761 0.3 0.561 Q 0.3 0.361 0.5 0.211 Q 0.7 0.061 1 0.061 L 20.05 0.011 Q 24.8 0.011 27.9 1.711 Q 30.95 3.411 32.45 6.361 Q 33.95 9.311 33.95 13.111 Q 33.95 18.761 30.25 21.936 A 14.236 14.236 0 0 1 22.315 24.958 A 28.157 28.157 0 0 1 19.3 25.111 Z M 331.85 13.211 L 333.4 11.661 Q 333.55 11.511 333.65 11.511 Q 334 11.511 334 12.011 L 334 17.461 L 334.1 17.611 L 334 17.511 L 334 18.411 Q 334 18.761 333.8 18.886 A 0.25 0.25 0 0 1 333.667 18.928 A 0.361 0.361 0 0 1 333.4 18.761 Q 333.05 18.161 332.125 17.011 Q 331.2 15.861 330.65 15.461 Q 327.9 13.411 325.35 13.411 Q 322.75 13.411 320.75 15.261 Q 318.7 17.111 317.55 20.111 Q 316.4 23.111 316.4 26.361 A 21.673 21.673 0 0 0 317.591 34.081 A 11.907 11.907 0 0 0 318.275 35.561 Q 320.15 38.961 323.75 38.961 Q 326.25 38.961 328.1 38.511 A 9.475 9.475 0 0 0 333.683 33.568 A 19.834 19.834 0 0 0 334.4 32.161 Q 334.55 31.811 334.9 31.811 Q 335.2 31.811 335.325 32.011 A 0.497 0.497 0 0 1 335.394 32.28 A 1.034 1.034 0 0 1 335.35 32.561 Q 334 36.711 330.925 39.211 Q 327.85 41.711 323.75 41.711 Q 319.95 41.711 316.55 40.211 Q 313.05 38.661 311 35.211 Q 308.95 31.761 308.95 26.661 Q 308.95 21.861 311.05 18.261 Q 313.05 14.761 316.35 12.886 Q 319.65 11.011 323.35 11.011 Q 327.45 11.011 330.5 13.311 Q 330.7 13.511 331.1 13.511 Q 331.55 13.511 331.85 13.211 Z M 173.1 27.161 L 154.25 27.161 A 19.605 19.605 0 0 0 155.749 34.756 A 11.195 11.195 0 0 0 156.3 35.811 Q 158.2 39.011 161.65 39.011 A 12.131 12.131 0 0 0 167.9 37.536 A 14.43 14.43 0 0 0 172.234 33.064 A 29.467 29.467 0 0 0 172.85 32.111 Q 173.05 31.761 173.45 31.761 Q 173.7 31.761 173.825 31.961 A 0.497 0.497 0 0 1 173.894 32.23 A 1.034 1.034 0 0 1 173.85 32.511 Q 172.6 36.661 169.25 39.236 Q 165.9 41.811 161.65 41.811 Q 157.8 41.811 154.4 40.311 Q 150.85 38.711 148.8 35.211 Q 146.75 31.711 146.75 26.561 Q 146.75 22.161 148.55 18.661 Q 150.35 15.061 153.625 13.061 Q 156.9 11.061 161.15 11.061 Q 167.05 11.061 170.55 14.736 A 13.409 13.409 0 0 1 173.803 22.359 A 28.113 28.113 0 0 1 174.05 26.211 Q 174.05 26.611 173.775 26.886 Q 173.5 27.161 173.1 27.161 Z M 57 21.861 L 57 20.661 Q 57 18.411 54.9 16.961 Q 52.8 15.511 49.6 15.511 Q 45.7 15.511 42.15 17.711 Q 42.1 17.761 41.9 17.761 Q 41.65 17.761 41.5 17.511 A 0.413 0.413 0 0 1 41.436 17.297 A 0.457 0.457 0 0 1 41.55 17.011 Q 43.45 14.911 46.45 13.761 Q 49.45 12.611 52.8 12.611 Q 55.75 12.611 58.15 13.411 Q 60.7 14.261 62.175 15.811 Q 63.65 17.361 63.65 19.411 L 63.65 34.861 Q 63.65 36.061 64.05 36.686 A 1.285 1.285 0 0 0 65.2 37.311 Q 66.1 37.311 67.25 36.411 Q 68.4 35.511 69.3 34.011 Q 69.45 33.811 69.65 33.811 Q 69.85 33.811 70 33.961 Q 70.15 34.111 70.1 34.361 Q 69.65 36.561 68.35 38.261 Q 67.05 39.811 65.35 40.636 Q 63.65 41.461 61.85 41.461 Q 60.45 41.461 59.325 40.936 Q 58.2 40.411 57.6 39.361 Q 53.95 41.211 50.05 41.211 Q 45.9 41.211 43.175 39.261 Q 40.45 37.311 40.45 34.111 Q 40.45 29.461 44.975 26.286 A 26.547 26.547 0 0 1 54.292 22.398 A 43.942 43.942 0 0 1 57 21.861 Z M 290.35 21.861 L 290.35 20.661 Q 290.35 18.411 288.25 16.961 Q 286.15 15.511 282.95 15.511 Q 279.05 15.511 275.5 17.711 Q 275.45 17.761 275.25 17.761 Q 275 17.761 274.85 17.511 A 0.413 0.413 0 0 1 274.786 17.297 A 0.457 0.457 0 0 1 274.9 17.011 Q 276.8 14.911 279.8 13.761 Q 282.8 12.611 286.15 12.611 Q 289.1 12.611 291.5 13.411 Q 294.05 14.261 295.525 15.811 Q 297 17.361 297 19.411 L 297 34.861 Q 297 36.061 297.4 36.686 A 1.285 1.285 0 0 0 298.55 37.311 Q 299.45 37.311 300.6 36.411 Q 301.75 35.511 302.65 34.011 Q 302.8 33.811 303 33.811 Q 303.2 33.811 303.35 33.961 Q 303.5 34.111 303.45 34.361 Q 303 36.561 301.7 38.261 Q 300.4 39.811 298.7 40.636 Q 297 41.461 295.2 41.461 Q 293.8 41.461 292.675 40.936 Q 291.55 40.411 290.95 39.361 Q 287.3 41.211 283.4 41.211 Q 279.25 41.211 276.525 39.261 Q 273.8 37.311 273.8 34.111 Q 273.8 29.461 278.325 26.286 A 26.547 26.547 0 0 1 287.642 22.398 A 43.942 43.942 0 0 1 290.35 21.861 Z M 190.75 22.161 L 189.85 23.161 L 189.8 38.411 L 191.7 39.761 Q 191.9 39.911 191.9 40.061 Q 191.9 40.211 191.7 40.361 Q 191.5 40.511 191.25 40.511 L 181.7 40.511 Q 181.25 40.511 181.1 40.236 Q 180.95 39.961 181.25 39.761 L 183.15 38.461 L 183.1 13.561 L 181.5 12.411 Q 181.3 12.261 181.3 12.111 Q 181.3 11.911 181.475 11.786 A 0.803 0.803 0 0 1 181.95 11.661 L 191.5 11.661 Q 191.95 11.661 192.1 11.936 Q 192.25 12.211 191.95 12.411 L 189.85 13.811 L 189.85 19.311 Q 193.15 16.161 196.75 14.461 A 15.464 15.464 0 0 1 203.408 12.899 A 14.406 14.406 0 0 1 204 12.911 Q 205.8 12.961 206.95 14.211 Q 208.1 15.461 208.1 17.261 Q 208.1 18.911 206.925 20.061 Q 205.75 21.211 204.1 21.211 Q 202.45 21.211 201.3 20.061 Q 200.15 18.911 200.15 17.261 Q 200.15 16.411 200.45 15.661 Q 198.25 16.061 196.65 16.961 Q 195.1 17.811 193.925 18.886 A 51.869 51.869 0 0 0 190.874 22.025 A 118.086 118.086 0 0 0 190.75 22.161 Z M 19.95 2.711 L 9.8 2.711 L 9.75 22.361 L 19.2 22.361 Q 22.5 22.361 24.25 19.486 Q 26 16.611 26 12.461 Q 26 8.261 24.45 5.486 Q 22.9 2.711 19.95 2.711 Z M 154.5 24.261 L 167.6 24.261 A 23.224 23.224 0 0 0 166.373 17.543 A 11.04 11.04 0 0 0 165.85 16.361 Q 164.4 13.561 161.15 13.561 Q 157.85 13.561 156.225 16.436 A 16.946 16.946 0 0 0 154.396 23.094 A 32.045 32.045 0 0 0 154.3 24.311 Q 154.35 24.261 154.5 24.261 Z M 57 37.111 L 57 24.211 Q 52.3 25.361 49.825 27.786 Q 47.35 30.211 47.35 33.511 Q 47.35 35.711 48.55 36.861 Q 49.75 38.011 52.05 38.011 Q 54.1 38.011 57 37.111 Z M 290.35 37.111 L 290.35 24.211 Q 285.65 25.361 283.175 27.786 Q 280.7 30.211 280.7 33.511 Q 280.7 35.711 281.9 36.861 Q 283.1 38.011 285.4 38.011 Q 287.45 38.011 290.35 37.111 Z M 214.7 40.461 L 215.9 38.561 Q 216.05 38.311 216.3 38.311 L 228.15 38.311 Q 228.4 38.311 228.55 38.561 L 229.75 40.461 L 229.85 40.711 Q 229.85 40.861 229.725 40.986 Q 229.6 41.111 229.4 41.111 L 215.1 41.111 Q 214.8 41.111 214.675 40.911 Q 214.55 40.711 214.7 40.461 Z"/></g></svg>