<svg width="75.189" height="41.462" viewBox="0 0 75.189 41.462" xmlns="http://www.w3.org/2000/svg"><g id="svgGroup" stroke-linecap="round" fill-rule="evenodd" font-size="9pt" stroke="#000000" stroke-width="0.25mm" fill="#000000" style="stroke:#000000;stroke-width:0.25mm;fill:#000000"><path d="M 73.4 3.161 L 50.5 38.411 L 68.95 38.411 Q 69.9 38.411 70.775 37.961 Q 71.65 37.511 72.1 36.661 L 73.75 34.261 Q 73.9 34.061 74.05 34.061 Q 74.2 34.061 74.35 34.261 Q 74.5 34.461 74.5 34.761 L 74.6 40.911 Q 74.6 41.111 74.45 41.236 Q 74.3 41.361 74.1 41.361 L 40.65 41.361 Q 40.35 41.361 40.15 41.211 Q 39.95 41.061 39.95 40.861 Q 39.95 40.661 40.15 40.511 L 41.3 39.761 L 64 4.261 L 46.6 4.261 Q 45.65 4.261 44.825 4.711 Q 44 5.161 43.45 5.961 Q 42.1 8.061 41.9 8.411 Q 41.75 8.611 41.55 8.611 Q 41.35 8.611 41.2 8.411 Q 41.05 8.211 41.05 7.961 L 41.05 1.811 Q 41.05 1.611 41.175 1.461 Q 41.3 1.311 41.5 1.311 L 74.5 1.311 Q 74.95 1.311 75.125 1.611 A 0.415 0.415 0 0 1 75.189 1.819 A 0.356 0.356 0 0 1 75 2.111 Q 74 2.711 73.4 3.161 Z M 19.3 25.111 L 9.75 25.111 L 9.7 39.161 L 11.8 40.611 Q 12 40.761 12 40.961 Q 12 41.161 11.8 41.311 Q 11.6 41.461 11.3 41.461 L 0.65 41.461 Q 0.35 41.461 0.175 41.311 Q 0 41.161 0 40.961 Q 0 40.761 0.2 40.611 L 2.3 39.211 L 2.35 2.211 L 0.5 0.911 Q 0.3 0.761 0.3 0.561 Q 0.3 0.361 0.5 0.211 Q 0.7 0.061 1 0.061 L 20.05 0.011 Q 24.8 0.011 27.9 1.711 Q 30.95 3.411 32.45 6.361 Q 33.95 9.311 33.95 13.111 Q 33.95 18.761 30.25 21.936 A 14.236 14.236 0 0 1 22.315 24.958 A 28.157 28.157 0 0 1 19.3 25.111 Z M 19.95 2.711 L 9.8 2.711 L 9.75 22.361 L 19.2 22.361 Q 22.5 22.361 24.25 19.486 Q 26 16.611 26 12.461 Q 26 8.261 24.45 5.486 Q 22.9 2.711 19.95 2.711 Z"/></g></svg>