<svg width="137.923" height="43.763" viewBox="0 0 137.923 43.763" xmlns="http://www.w3.org/2000/svg"><g id="svgGroup" stroke-linecap="round" fill-rule="evenodd" font-size="9pt" stroke="#000000" stroke-width="0.6mm" fill="#000000" style="stroke:#000000;stroke-width:0.6mm;fill:#000000"><path d="M 76.507 43.2 L 66.057 43.2 Q 65.607 43.2 65.432 42.9 A 0.377 0.377 0 0 1 65.374 42.711 A 0.376 0.376 0 0 1 65.607 42.4 L 67.007 41.5 L 54.057 22.7 L 48.807 28.45 L 48.807 41 L 50.857 42.4 Q 51.057 42.55 51.057 42.75 Q 51.057 42.95 50.882 43.1 Q 50.707 43.25 50.407 43.25 L 39.957 43.25 Q 39.657 43.25 39.457 43.1 Q 39.257 42.95 39.257 42.75 Q 39.257 42.55 39.457 42.4 L 41.507 41.05 L 41.507 4.6 L 39.757 3.4 Q 39.507 3.25 39.507 3 Q 39.507 2.8 39.707 2.675 Q 39.907 2.55 40.207 2.55 L 50.657 2.55 A 0.803 0.803 0 0 1 51.132 2.675 Q 51.307 2.8 51.307 3 Q 51.307 3.25 51.107 3.4 Q 50.457 3.75 48.857 4.9 L 48.857 23.1 L 63.307 7.25 Q 63.957 6.75 63.957 5.85 Q 63.957 4.85 63.157 4.25 L 61.957 3.4 Q 61.757 3.25 61.757 3.05 Q 61.757 2.85 61.932 2.725 Q 62.107 2.6 62.457 2.6 L 72.907 2.6 A 0.803 0.803 0 0 1 73.382 2.725 Q 73.557 2.85 73.557 3.05 Q 73.557 3.25 73.357 3.4 Q 72.657 3.85 70.857 5.05 L 69.607 5.9 L 68.757 6.5 L 58.507 17.8 L 73.807 40.2 L 77.007 42.4 A 0.432 0.432 0 0 1 77.207 42.75 Q 77.207 42.9 77.007 43.05 Q 76.807 43.2 76.507 43.2 Z M 0.607 41.75 L 0.607 32.3 Q 0.607 32 0.757 31.8 Q 0.907 31.6 1.107 31.6 Q 1.307 31.6 1.557 31.85 Q 1.957 32.3 2.157 32.75 Q 2.307 33 2.432 33.2 Q 2.557 33.4 2.657 33.55 Q 3.857 35.45 4.307 36 Q 4.857 36.7 5.657 37.15 Q 11.457 39.75 16.357 39.75 Q 20.157 39.75 22.332 38 Q 24.507 36.25 24.507 32.9 Q 24.507 30.9 23.457 29.8 Q 22.407 28.7 20.732 28.025 Q 19.057 27.35 14.957 26.2 A 68.477 68.477 0 0 1 7.396 23.567 A 21.045 21.045 0 0 1 7.357 23.55 Q 4.157 22.2 2.082 19.475 Q 0.007 16.75 0.007 12.65 Q 0.007 7.75 4.332 5.1 Q 8.657 2.45 15.907 2.45 Q 20.007 2.45 24.857 3.45 L 25.607 3.55 Q 27.007 3.55 27.907 2.5 L 29.957 0.2 Q 30.157 0 30.257 0 Q 30.407 0 30.557 0.225 Q 30.707 0.45 30.707 0.75 L 30.707 10.7 Q 30.707 11.2 30.432 11.4 Q 30.157 11.6 29.907 11.25 L 29.157 10.15 L 27.507 7.65 Q 26.657 6.65 25.807 6.4 Q 21.307 5.15 17.107 5.15 A 16.143 16.143 0 0 0 11.357 6.05 Q 9.007 6.95 7.832 8.6 A 5.402 5.402 0 0 0 6.79 11.802 A 5.993 5.993 0 0 0 6.807 12.25 Q 6.957 14.7 10.157 16.8 Q 13.357 18.9 18.557 20.5 L 20.157 20.95 Q 23.857 22 26.257 23.1 Q 28.907 24.35 30.582 26.75 Q 32.257 29.15 32.257 32.75 Q 32.257 33.8 32.157 34.7 Q 31.707 39.1 28.232 41.425 Q 24.757 43.75 19.357 43.75 Q 16.107 43.75 12.657 42.85 Q 9.207 41.95 6.207 40.3 Q 5.707 40 5.107 40 Q 4.007 40 2.957 40.9 L 1.507 42.25 Q 1.357 42.45 1.107 42.45 Q 0.907 42.45 0.757 42.25 Q 0.607 42.05 0.607 41.75 Z M 123.257 27 L 113.707 27 L 113.657 41.05 L 115.757 42.5 Q 115.957 42.65 115.957 42.85 Q 115.957 43.05 115.757 43.2 Q 115.557 43.35 115.257 43.35 L 104.607 43.35 Q 104.307 43.35 104.132 43.2 Q 103.957 43.05 103.957 42.85 Q 103.957 42.65 104.157 42.5 L 106.257 41.1 L 106.307 4.1 L 104.457 2.8 Q 104.257 2.65 104.257 2.45 Q 104.257 2.25 104.457 2.1 Q 104.657 1.95 104.957 1.95 L 124.007 1.9 Q 128.757 1.9 131.857 3.6 Q 134.907 5.3 136.407 8.25 Q 137.907 11.2 137.907 15 Q 137.907 20.65 134.207 23.825 Q 130.507 27 123.257 27 Z M 95.707 3.05 L 93.407 4.6 L 93.357 41 L 95.457 42.45 Q 95.657 42.6 95.657 42.8 Q 95.657 43 95.457 43.15 Q 95.257 43.3 94.957 43.3 L 84.407 43.3 Q 84.107 43.3 83.907 43.15 Q 83.707 43 83.707 42.8 Q 83.707 42.6 83.907 42.45 L 86.007 41.1 L 86.007 4.35 L 84.157 3.05 Q 83.957 2.9 83.957 2.7 Q 83.957 2.5 84.157 2.375 Q 84.357 2.25 84.657 2.25 L 95.207 2.25 Q 95.557 2.25 95.757 2.375 Q 95.957 2.5 95.957 2.7 Q 95.957 2.9 95.707 3.05 Z M 123.907 4.6 L 113.757 4.6 L 113.707 24.25 L 123.157 24.25 Q 126.457 24.25 128.207 21.375 Q 129.957 18.5 129.957 14.35 Q 129.957 10.15 128.407 7.375 Q 126.857 4.6 123.907 4.6 Z"/></g></svg>