<svg width="33.397" height="31.671" viewBox="0 0 33.397 31.671" xmlns="http://www.w3.org/2000/svg"><g id="svgGroup" stroke-linecap="round" fill-rule="evenodd" font-size="9pt" stroke="#000000" stroke-width="0.7mm" fill="#000000" style="stroke:#000000;stroke-width:0.7mm;fill:#000000"><path d="M 26.462 28.74 L 25.462 28.74 Q 25.112 29.54 24.362 29.84 Q 23.612 30.14 22.762 30.49 Q 22.512 30.59 22.287 30.715 Q 22.062 30.84 21.812 30.99 Q 21.262 31.29 20.737 31.515 A 1.86 1.86 0 0 1 19.998 31.671 A 1.876 1.876 0 0 1 19.662 31.64 Q 21.712 29.29 23.687 26.79 Q 25.662 24.29 27.762 21.99 Q 27.912 21.29 28.162 20.665 Q 28.412 20.04 28.712 19.39 Q 29.262 18.24 29.662 17.04 A 5.377 5.377 0 0 0 29.928 15.329 A 6.871 6.871 0 0 0 29.862 14.39 Q 29.712 13.04 28.737 11.34 Q 27.762 9.64 26.512 8.065 Q 25.262 6.49 24.212 5.69 Q 22.762 4.54 20.887 3.94 Q 19.012 3.34 17.262 3.09 A 8.239 8.239 0 0 1 17.719 5.694 A 6.059 6.059 0 0 1 17.462 7.465 Q 16.862 9.44 15.812 11.49 Q 14.912 13.24 14.062 14.715 Q 13.212 16.19 12.562 17.44 Q 12.362 17.89 12.162 18.44 Q 11.962 18.99 11.762 19.24 Q 11.662 19.34 11.337 19.415 Q 11.012 19.49 10.812 19.69 Q 10.512 19.99 10.287 20.565 Q 10.062 21.14 9.662 21.64 Q 9.562 21.79 9.337 21.815 Q 9.112 21.84 9.012 21.99 Q 8.662 22.49 8.512 23.09 Q 8.362 23.69 7.412 23.74 A 0.641 0.641 0 0 1 7.645 24.151 A 0.261 0.261 0 0 1 7.587 24.315 Q 7.412 24.54 7.162 24.79 Q 6.862 25.04 6.662 25.265 A 0.435 0.435 0 0 0 6.548 25.563 A 0.708 0.708 0 0 0 6.612 25.84 L 5.812 25.84 A 0.292 0.292 0 0 0 5.795 25.932 A 0.319 0.319 0 0 0 6.212 26.14 L 6.312 26.14 Q 5.812 26.64 5.362 26.79 Q 4.912 26.94 4.212 26.79 Q 3.962 27.54 3.337 27.615 Q 2.712 27.69 2.062 27.39 Q 1.412 27.09 0.962 26.79 A 15.456 15.456 0 0 1 0 21.542 A 13.618 13.618 0 0 1 0.037 20.54 Q 0.262 17.49 0.812 14.39 Q 0.862 13.89 0.937 13.415 Q 1.012 12.94 1.112 12.44 Q 1.362 12.24 1.562 11.99 Q 1.762 11.74 2.112 11.64 A 0.751 0.751 0 0 0 2.128 11.496 A 0.157 0.157 0 0 0 2.062 11.34 Q 1.962 11.29 1.812 11.24 Q 1.662 11.19 1.612 11.14 Q 2.012 11.09 1.912 10.815 A 0.259 0.259 0 0 0 1.803 10.637 A 0.061 0.061 0 0 0 1.762 10.69 Q 2.462 8.49 3.987 6.315 Q 5.512 4.14 7.737 2.49 Q 9.962 0.84 12.762 0.24 Q 15.562 -0.36 18.712 0.54 Q 20.062 0.94 21.537 1.765 Q 23.012 2.59 24.362 3.44 Q 25.762 4.34 26.787 5.39 Q 27.812 6.44 28.862 7.44 Q 29.712 8.24 30.562 9.165 Q 31.412 10.09 32.112 11.34 A 9.69 9.69 0 0 1 33.397 16.141 A 9.89 9.89 0 0 1 33.387 16.59 Q 33.262 19.34 31.912 22.14 Q 30.862 23.24 29.837 24.39 Q 28.812 25.54 28.212 27.14 Q 27.462 27.69 27.112 27.865 Q 26.762 28.04 26.462 28.74 Z M 16.912 3.09 Q 15.112 2.69 13.737 3.015 Q 12.362 3.34 11.287 4.04 Q 10.212 4.74 9.262 5.49 Q 8.912 5.74 8.587 5.99 Q 8.262 6.24 7.912 6.49 Q 6.412 8.89 5.212 11.365 Q 4.012 13.84 3.462 16.64 A 20.326 20.326 0 0 0 3.106 20.557 A 27.928 27.928 0 0 0 3.212 22.94 Q 5.712 21.49 7.412 18.94 Q 9.112 16.39 10.812 13.89 Q 12.562 11.34 14.062 8.59 Q 15.562 5.84 16.912 3.09 Z"/></g></svg>