<svg width="96.673" height="46.553" viewBox="0 0 96.673 46.553" xmlns="http://www.w3.org/2000/svg"><g id="svgGroup" stroke-linecap="round" fill-rule="evenodd" font-size="9pt" stroke="#000000" stroke-width="0.36mm" fill="#000000" style="stroke:#000000;stroke-width:0.36mm;fill:#000000"><path d="M 47.123 35.25 L 40.523 35.25 L 40.523 42.3 Q 40.523 44.2 39.423 45.35 Q 38.323 46.5 36.773 46.5 Q 35.373 46.5 34.523 45.6 Q 32.573 43.4 29.323 41.15 Q 29.123 40.95 29.123 40.8 Q 29.123 40.55 29.273 40.375 A 0.371 0.371 0 0 1 29.567 40.239 A 0.542 0.542 0 0 1 29.673 40.25 L 30.973 40.5 Q 32.723 40.85 33.473 40.85 Q 34.023 40.85 34.273 40.65 Q 34.523 40.45 34.523 40 L 34.523 35.25 L 17.373 35.25 Q 17.073 35.25 16.948 35 Q 16.823 34.75 16.973 34.5 L 18.223 32.55 Q 18.373 32.3 18.623 32.3 L 34.523 32.3 L 34.523 29.75 Q 34.523 29.4 34.773 29.125 Q 35.023 28.85 35.323 28.85 L 40.323 28.85 Q 39.373 28.25 38.798 27.35 Q 38.223 26.45 38.223 25.55 L 38.223 25.4 L 34.873 25.4 L 34.873 26.9 Q 34.873 28.5 34.298 29.375 Q 33.723 30.25 32.773 30.25 Q 31.373 30.25 30.148 28.8 Q 28.923 27.35 28.723 25.4 L 25.423 25.4 L 25.423 25.6 Q 25.423 27.3 24.098 28.625 Q 22.773 29.95 21.273 29.95 Q 20.323 29.95 19.748 29.325 Q 19.173 28.7 19.173 27.5 L 19.173 14.95 L 13.073 14.95 L 13.073 43.2 Q 13.073 44.7 12.473 45.475 Q 11.873 46.25 10.923 46.25 Q 9.923 46.25 8.848 45.575 Q 7.773 44.9 7.048 43.85 Q 6.323 42.8 6.323 41.85 L 6.373 14.95 L 0.373 14.95 Q 0.173 14.95 0.048 14.675 A 0.485 0.485 0 0 1 0 14.475 A 0.38 0.38 0 0 1 0.123 14.2 L 1.173 12.25 Q 1.273 12 1.573 12 L 6.373 12 L 6.373 1.75 Q 6.373 1.55 6.523 1.425 Q 6.673 1.3 6.873 1.3 L 14.023 1.3 A 0.354 0.354 0 0 1 14.373 1.525 Q 14.473 1.75 14.323 1.9 L 13.073 2.8 L 13.073 12 L 14.023 12 L 15.973 10 Q 16.373 9.6 16.923 9.6 Q 17.723 9.6 17.973 10.15 L 19.873 13.1 L 25.423 13.65 L 28.723 13.65 L 28.773 10.55 L 18.623 10.55 Q 18.323 10.55 18.198 10.325 Q 18.073 10.1 18.223 9.85 L 19.473 7.85 Q 19.623 7.65 19.873 7.65 L 28.773 7.65 L 28.773 1.75 Q 28.773 1.3 29.173 1.3 L 35.723 1.3 Q 35.973 1.3 36.073 1.525 Q 36.173 1.75 36.023 1.9 L 34.873 2.8 L 34.873 7.65 L 39.373 7.65 Q 38.873 6.25 38.073 5.6 Q 37.273 4.95 35.523 4.55 Q 35.373 4.55 35.373 4.4 Q 35.373 4.3 35.523 4.25 Q 37.623 3.75 38.398 2.975 Q 39.173 2.2 39.673 0.1 Q 39.773 0 39.873 0 Q 39.923 0 40.023 0.1 Q 40.523 2.2 41.298 2.975 Q 42.073 3.75 44.123 4.25 Q 44.273 4.3 44.273 4.4 Q 44.273 4.55 44.123 4.55 Q 42.473 4.95 41.723 5.475 Q 40.973 6 40.523 7.05 L 41.773 6.05 Q 42.323 5.65 42.823 5.65 Q 43.623 5.65 44.073 6.2 L 46.423 9.8 L 46.523 10.1 Q 46.523 10.3 46.373 10.425 Q 46.223 10.55 46.023 10.55 L 34.873 10.55 L 34.873 13.65 L 38.123 13.65 Q 37.991 13.738 40.035 12.077 A 1138.681 1138.681 0 0 1 40.623 11.6 Q 41.173 11.2 41.673 11.2 Q 42.473 11.2 42.873 11.75 Q 43.523 12.65 44.373 13.675 Q 45.223 14.7 45.923 15.5 Q 46.273 15.85 46.273 16.15 Q 46.273 16.5 45.873 16.65 L 44.423 17.55 L 44.423 26.7 Q 44.423 28.1 43.873 28.8 Q 43.323 29.5 42.323 29.5 Q 41.873 29.5 41.423 29.35 L 41.373 29.4 L 40.523 30.25 L 40.523 31.75 Q 41.823 30.45 42.323 30.3 Q 43.273 30 43.723 30 Q 44.323 30 44.673 30.45 L 45.923 32.25 Q 46.423 33.05 47.423 34.45 Q 47.573 34.6 47.573 34.8 Q 47.573 35 47.448 35.125 Q 47.323 35.25 47.123 35.25 Z M 93.023 30.95 L 90.073 30.45 L 90.223 30.65 Q 90.273 30.7 90.273 30.8 Q 90.273 31.2 89.623 31.7 L 88.573 32.6 L 88.573 43.1 Q 88.573 44.45 87.423 45.35 Q 86.273 46.25 84.773 46.25 Q 83.873 46.25 83.273 45.9 Q 82.673 45.55 82.473 44.85 L 65.623 44.85 Q 65.123 45.6 64.223 46.075 Q 63.323 46.55 62.423 46.55 Q 61.323 46.55 60.673 45.85 Q 60.023 45.15 60.023 43.85 L 60.023 29.95 Q 56.273 30.25 51.823 30.25 Q 51.623 30.25 51.523 30.125 Q 51.423 30 51.423 29.85 Q 51.423 29.65 51.673 29.5 A 226.683 226.683 0 0 0 62.558 26.288 A 102.127 102.127 0 0 0 62.823 26.2 Q 67.023 24.8 70.123 23.25 Q 68.023 21.65 66.623 19.65 Q 65.523 21.55 63.348 23.025 Q 61.173 24.5 57.173 25.95 L 57.023 26 Q 56.773 26 56.698 25.725 A 0.548 0.548 0 0 1 56.678 25.581 A 0.456 0.456 0 0 1 56.823 25.25 Q 58.923 23.4 60.023 21.6 Q 61.023 19.95 61.473 18.3 Q 61.923 16.65 62.373 13.3 L 62.673 11.25 Q 62.773 10.8 63.123 10.8 L 67.573 11.55 L 78.773 11.55 Q 80.523 10.7 81.373 9.95 Q 81.923 9.55 82.473 9.55 Q 83.373 9.55 83.773 10.1 Q 84.473 11.05 86.723 13.65 L 86.823 13.8 Q 87.273 12.75 87.448 11.85 Q 87.623 10.95 87.773 9.3 L 59.223 9.35 A 15.516 15.516 0 0 1 59.229 9.775 A 9.69 9.69 0 0 1 57.723 15.35 Q 56.773 16.85 54.923 16.85 Q 53.623 16.85 52.573 15.95 Q 51.523 15.05 51.523 13.9 Q 51.523 12.75 52.573 11.85 Q 54.373 10.25 55.348 8.9 Q 56.323 7.55 57.723 4.8 Q 57.873 4.5 58.173 4.5 Q 58.573 4.5 58.623 4.85 L 58.923 6.4 L 70.173 6.4 L 70.173 0.7 Q 70.173 0.5 70.323 0.375 Q 70.473 0.25 70.673 0.25 L 77.823 0.25 Q 78.123 0.25 78.248 0.45 A 0.341 0.341 0 0 1 78.305 0.632 A 0.363 0.363 0 0 1 78.223 0.85 L 76.873 1.8 L 76.873 6.4 L 87.723 6.4 Q 89.623 5.2 90.673 4.3 Q 91.223 3.85 91.823 3.85 Q 92.623 3.85 92.973 4.45 Q 94.673 6.65 95.573 8.75 A 2.099 2.099 0 0 1 95.864 9.709 A 1.009 1.009 0 0 1 95.823 10 Q 95.523 11.25 94.623 11.875 Q 93.723 12.5 91.273 13.5 Q 88.173 14.7 86.423 15.8 Q 86.373 15.85 86.273 15.85 Q 86.123 15.85 86.048 15.7 Q 85.973 15.55 86.023 15.4 L 86.523 14.4 L 85.423 15.2 Q 83.873 19.8 80.873 22.7 Q 87.773 23.85 96.273 23.85 Q 96.473 23.85 96.573 24 Q 96.673 24.15 96.673 24.35 Q 96.673 24.6 96.473 24.75 Q 94.773 25.8 94.248 27 Q 93.723 28.2 93.723 30.55 Q 93.723 30.75 93.498 30.875 A 0.679 0.679 0 0 1 93.164 30.964 A 0.717 0.717 0 0 1 93.023 30.95 Z M 66.173 31.4 L 66.123 42 L 82.373 42 L 82.423 31.5 L 82.423 31.4 L 66.173 31.4 Z M 28.023 39.25 L 25.723 41.1 L 26.423 44 L 26.423 44.1 Q 26.423 44.3 26.273 44.35 A 0.299 0.299 0 0 1 26.179 44.367 A 0.213 0.213 0 0 1 26.023 44.3 L 23.473 42.75 L 20.923 44.3 Q 20.823 44.4 20.773 44.4 Q 20.673 44.4 20.598 44.275 Q 20.523 44.15 20.573 44 L 21.273 41.1 L 19.023 39.25 Q 18.823 39.1 18.873 38.925 A 0.316 0.316 0 0 1 19.123 38.7 L 22.123 38.55 L 23.223 35.75 Q 23.323 35.6 23.523 35.575 Q 23.723 35.55 23.773 35.75 L 24.873 38.55 L 27.873 38.7 A 0.249 0.249 0 0 1 28.098 38.9 Q 28.173 39.1 28.023 39.25 Z M 78.923 14.45 L 68.723 14.45 L 67.623 17.65 Q 70.023 19.65 73.923 20.95 Q 77.673 18.2 78.923 14.45 Z M 69.173 28.55 L 81.773 28.55 Q 78.873 27.75 75.523 26.35 Q 72.523 27.75 69.173 28.55 Z M 38.223 22.65 L 38.273 20.8 L 34.873 20.8 L 34.873 22.65 L 38.223 22.65 Z M 25.423 22.65 L 28.723 22.65 L 28.723 20.8 L 25.423 20.8 L 25.423 22.65 Z M 34.873 16.35 L 34.873 18.05 L 38.273 18.05 L 38.273 16.35 L 34.873 16.35 Z M 25.423 16.35 L 25.423 18.05 L 28.723 18.05 L 28.723 16.35 L 25.423 16.35 Z"/></g></svg>