<svg width="605.35" height="45.967" viewBox="0 0 605.35 45.967" xmlns="http://www.w3.org/2000/svg"><g id="svgGroup" stroke-linecap="round" fill-rule="evenodd" font-size="9pt" stroke="#000000" stroke-width="0.36mm" fill="#000000" style="stroke:#000000;stroke-width:0.36mm;fill:#000000"><path d="M 126.45 29.303 L 126.45 42.903 Q 126.45 44.403 125.85 45.178 Q 125.25 45.953 124.15 45.953 Q 123.1 45.953 121.95 45.278 Q 120.8 44.603 120 43.578 Q 119.2 42.553 119.2 41.553 L 119.2 35.503 A 28.804 28.804 0 0 1 105.058 42.159 A 55.079 55.079 0 0 1 101.4 42.803 L 101.3 42.803 Q 101.1 42.803 100.95 42.678 Q 100.8 42.553 100.8 42.353 Q 100.8 42.153 101 42.003 Q 106.35 39.053 109.5 36.553 Q 112.9 33.953 114.95 30.828 Q 117 27.703 117.9 23.603 L 102 23.603 A 0.4 0.4 0 0 1 101.625 23.353 Q 101.5 23.103 101.65 22.853 L 102.9 20.903 Q 103.1 20.703 103.3 20.703 L 112.95 20.703 Q 112.25 20.153 111.85 19.053 Q 110.8 16.153 109.625 14.403 Q 108.45 12.653 106.2 10.553 Q 106.05 10.403 106.05 10.303 Q 106.05 10.103 106.225 9.953 Q 106.4 9.803 106.6 9.853 A 20.014 20.014 0 0 1 115.63 13.356 A 6.478 6.478 0 0 1 117.9 16.753 Q 118.05 17.253 118.05 17.703 Q 118.05 18.653 117.6 19.453 Q 117.15 20.253 116.45 20.703 L 119.25 20.703 L 119.25 9.753 L 104.95 9.753 Q 104.6 9.753 104.475 9.503 Q 104.35 9.253 104.5 9.003 L 105.75 7.053 Q 105.9 6.853 106.15 6.853 L 119.25 6.853 L 119.25 0.453 Q 119.25 0.253 119.4 0.128 Q 119.55 0.003 119.75 0.003 L 127.55 0.003 Q 127.85 0.003 127.95 0.203 Q 128.05 0.403 127.9 0.653 L 126.45 1.503 L 126.45 6.853 L 133.55 6.853 Q 135.2 5.903 136.9 4.303 Q 137.3 3.903 137.95 3.903 Q 138.75 3.903 139.15 4.453 L 142.45 8.953 Q 142.55 9.053 142.55 9.253 Q 142.55 9.453 142.425 9.603 Q 142.3 9.753 142.1 9.753 L 135.8 9.753 Q 138.75 11.603 140.9 12.503 Q 141.15 12.603 141.15 12.953 Q 141.15 13.203 140.95 13.353 L 139.2 14.303 Q 136.55 17.253 134.725 18.553 Q 132.9 19.853 130 20.703 L 135.2 20.703 Q 136.9 19.803 138.65 18.153 Q 139.05 17.753 139.7 17.753 Q 140.5 17.753 140.9 18.303 L 144.2 22.853 L 144.3 23.153 Q 144.3 23.303 144.175 23.453 Q 144.05 23.603 143.85 23.603 L 127.1 23.603 Q 129.45 27.603 132.5 30.103 Q 135.35 32.453 138.6 33.853 Q 141.85 35.253 146.8 36.503 Q 147.15 36.603 147.15 36.903 A 0.48 0.48 0 0 1 146.85 37.353 Q 143.45 39.003 142.4 44.153 Q 142.35 44.353 142.175 44.453 Q 142 44.553 141.8 44.453 Q 131 38.953 126.45 29.303 Z M 92.8 45.303 L 92.8 45.453 A 0.393 0.393 0 0 1 92.506 45.967 A 0.439 0.439 0 0 1 92.4 45.953 L 90.9 45.753 Q 85.2 44.953 80.1 44.003 Q 68.55 41.803 63.15 37.753 Q 61.15 40.703 59.6 42.053 Q 58.05 43.403 55.05 44.753 A 0.506 0.506 0 0 1 54.891 44.782 A 0.327 0.327 0 0 1 54.6 44.603 L 51.2 40.253 Q 51.1 40.153 51.1 40.003 Q 51.1 39.753 51.4 39.753 Q 53.7 39.453 55.225 39.103 Q 56.75 38.753 58.25 38.203 L 58.3 20.153 L 52.95 20.153 Q 52.65 20.153 52.5 19.903 Q 52.35 19.653 52.5 19.403 L 53.85 17.403 A 0.622 0.622 0 0 1 54.3 17.203 L 57.8 17.203 Q 59.4 15.603 59.95 15.153 Q 60.5 14.753 61.2 14.753 Q 62.05 14.753 62.5 15.303 Q 63.4 16.503 64.9 19.153 Q 65.3 19.803 65.3 20.003 Q 65.3 20.253 64.95 20.603 L 64 21.353 L 64 36.203 A 36.508 36.508 0 0 0 75.466 38.229 A 76.581 76.581 0 0 0 78.9 38.303 Q 81 38.303 81.55 38.253 Q 80.8 37.603 80.325 36.653 Q 79.85 35.703 79.85 34.803 L 79.85 7.203 Q 77.65 8.953 74.85 9.953 L 74.2 10.803 L 74.2 27.253 Q 76.45 27.003 78.6 26.503 L 78.7 26.503 Q 78.95 26.503 79.05 26.753 A 0.433 0.433 0 0 1 79.083 26.914 A 0.403 0.403 0 0 1 78.95 27.203 Q 76.05 29.903 73.35 31.503 Q 70.65 33.103 66.85 34.253 L 66.8 34.253 Q 66.55 34.253 66.45 33.953 Q 65.65 30.853 64.6 27.703 L 64.55 27.553 Q 64.55 27.353 64.675 27.228 A 0.295 0.295 0 0 1 64.892 27.139 A 0.447 0.447 0 0 1 65 27.153 L 68.4 27.403 L 68.45 8.453 Q 68.45 8.253 68.55 8.103 Q 68.65 7.953 68.8 7.953 L 71.1 8.303 Q 72.1 7.303 72.8 6.278 Q 73.5 5.253 74.75 3.103 L 75.65 1.653 Q 75.75 1.453 75.925 1.428 Q 76.1 1.403 76.25 1.503 L 77.85 2.703 L 79.85 4.253 L 79.85 2.803 Q 79.85 2.603 79.95 2.478 Q 80.05 2.353 80.2 2.353 L 85.6 3.253 L 88.35 3.253 Q 89.15 2.653 90.25 1.653 Q 90.95 1.103 91.45 1.103 Q 92.1 1.103 92.5 1.803 L 93.4 3.153 L 94.65 5.003 Q 94.9 5.353 94.9 5.553 Q 94.9 5.803 94.7 6.053 L 93.75 7.053 L 93.75 27.053 Q 93.75 28.953 92.825 30.128 Q 91.9 31.303 90.65 31.303 Q 89.5 31.303 88.75 30.253 Q 86.7 27.103 85.1 25.953 L 85.1 36.153 Q 85.1 37.353 84.8 38.103 Q 90 37.753 94.25 36.953 L 94.35 36.953 Q 94.65 36.953 94.825 37.178 A 0.348 0.348 0 0 1 94.907 37.394 A 0.42 0.42 0 0 1 94.8 37.653 A 10.134 10.134 0 0 0 92.765 44.221 A 17.346 17.346 0 0 0 92.8 45.303 Z M 176.95 6.853 L 177.05 7.153 Q 177.05 7.353 176.925 7.503 Q 176.8 7.653 176.6 7.653 L 168.9 7.653 L 167.85 8.203 Q 166.85 9.303 165.5 11.253 L 163.9 13.603 Q 161.7 16.853 160.25 18.753 Q 163.1 18.953 165.1 18.953 Q 168.35 18.953 171 18.603 Q 170.6 17.053 169.85 15.903 Q 169.8 15.853 169.8 15.753 Q 169.8 15.553 170 15.453 Q 170.2 15.353 170.4 15.453 Q 173.35 16.603 175.1 18.678 Q 176.85 20.753 176.85 22.853 Q 176.85 24.103 176.025 24.928 Q 175.2 25.753 174.05 25.753 Q 173 25.753 172.275 24.978 Q 171.55 24.203 171.55 22.903 Q 171.55 21.403 171.3 19.903 Q 168.8 21.203 165.15 22.603 L 167.15 22.603 Q 167.4 22.603 167.525 22.828 A 0.348 0.348 0 0 1 167.573 22.997 A 0.362 0.362 0 0 1 167.45 23.253 L 166.45 24.103 L 166.45 28.703 L 167.35 28.703 Q 168.95 26.903 169.7 26.203 Q 170.25 25.803 170.8 25.803 Q 171.55 25.803 171.95 26.353 L 174.45 29.953 Q 175 30.653 175.1 30.853 L 175.2 31.103 Q 175.2 31.303 175.075 31.453 Q 174.95 31.603 174.75 31.603 L 166.45 31.603 L 166.45 39.753 Q 171.3 39.553 175.35 38.903 L 175.4 38.903 Q 175.6 38.903 175.75 39.028 Q 175.9 39.153 175.9 39.303 Q 175.9 39.603 175.65 39.703 Q 171.65 42.053 165.225 43.903 Q 158.8 45.753 154.1 45.953 Q 153.6 45.953 153.55 45.603 L 152.95 42.903 L 152.2 39.853 L 152.2 39.753 Q 152.2 39.203 152.8 39.303 Q 156.55 39.753 160.3 39.803 L 160.35 31.603 L 154.1 31.603 Q 153.85 31.603 153.725 31.378 A 0.524 0.524 0 0 1 153.656 31.12 A 0.583 0.583 0 0 1 153.7 30.903 L 154.95 28.903 Q 155 28.703 155.35 28.703 L 160.35 28.703 L 160.4 24.053 Q 157.1 24.853 154.2 25.003 Q 154.05 25.003 153.9 24.903 Q 153.75 24.803 153.7 24.653 Q 153.55 24.053 153.35 22.853 L 153.05 21.353 Q 152.7 19.053 152.45 18.353 L 152.45 18.203 Q 152.45 18.053 152.6 17.928 A 0.365 0.365 0 0 1 152.84 17.839 A 0.454 0.454 0 0 1 152.95 17.853 Q 156.05 18.303 157.05 18.403 Q 158.65 13.653 160.35 7.653 L 153.2 7.653 Q 152.95 7.653 152.8 7.378 Q 152.65 7.103 152.8 6.903 L 154.05 4.903 Q 154.1 4.703 154.4 4.703 L 169.15 4.703 Q 170.95 2.753 171.55 2.203 Q 172.1 1.803 172.6 1.803 Q 173.45 1.803 173.75 2.353 L 176.95 6.853 Z M 604.7 43.653 L 594.85 43.653 Q 594.45 43.653 594.275 43.378 A 0.361 0.361 0 0 1 594.211 43.186 A 0.35 0.35 0 0 1 594.4 42.903 L 595.75 42.053 L 588.45 28.853 L 584.4 33.253 L 584.4 41.603 L 586.35 42.953 Q 586.55 43.103 586.55 43.253 A 0.432 0.432 0 0 1 586.35 43.603 Q 586.15 43.753 585.9 43.753 L 576.05 43.753 Q 575.75 43.753 575.575 43.628 Q 575.4 43.503 575.4 43.303 Q 575.4 43.103 575.6 42.953 L 577.55 41.653 L 577.5 8.353 L 575.85 7.203 Q 575.65 7.053 575.65 6.853 Q 575.65 6.653 575.825 6.528 Q 576 6.403 576.3 6.403 L 586.15 6.403 Q 586.55 6.403 586.725 6.703 A 0.415 0.415 0 0 1 586.789 6.911 A 0.356 0.356 0 0 1 586.6 7.203 L 584.45 8.603 L 584.4 28.203 L 592.65 19.303 Q 593.25 18.753 593.25 17.953 A 1.683 1.683 0 0 0 592.5 16.453 L 591.4 15.653 Q 591.2 15.503 591.2 15.353 Q 591.2 15.153 591.375 15.028 A 0.803 0.803 0 0 1 591.85 14.903 L 601.7 14.903 Q 602.1 14.903 602.275 15.178 A 0.328 0.328 0 0 1 602.333 15.353 A 0.371 0.371 0 0 1 602.1 15.653 L 598.6 18.003 L 597.8 18.603 L 592.7 24.203 L 602.4 41.003 L 605.15 42.903 Q 605.35 43.053 605.35 43.203 Q 605.35 43.403 605.175 43.528 Q 605 43.653 604.7 43.653 Z M 339.25 43.153 L 330.3 43.153 Q 329.9 43.153 329.75 42.878 Q 329.6 42.603 329.9 42.403 L 331.4 41.303 L 331.4 24.053 Q 331.4 21.553 329.5 20.253 Q 327.6 18.953 324.35 18.953 Q 321.35 18.953 318.2 20.053 L 318.15 41.103 L 320 42.403 Q 320.15 42.553 320.15 42.703 Q 320.15 42.853 320 43.003 Q 319.85 43.153 319.55 43.153 L 310.25 43.153 Q 309.85 43.153 309.675 42.878 A 0.361 0.361 0 0 1 309.611 42.686 A 0.35 0.35 0 0 1 309.8 42.403 L 311.65 41.203 L 311.65 16.553 L 310.05 15.403 Q 309.85 15.253 309.85 15.103 Q 309.85 14.953 310.05 14.803 Q 310.25 14.653 310.5 14.653 L 319.8 14.653 Q 320.2 14.653 320.375 14.928 A 0.328 0.328 0 0 1 320.433 15.103 A 0.371 0.371 0 0 1 320.2 15.403 L 318.2 16.753 L 318.2 18.053 Q 320.3 16.803 322.875 16.103 Q 325.45 15.403 328 15.403 Q 332.55 15.403 335.375 17.653 Q 338.2 19.903 338.2 24.153 L 338.2 41.403 L 339.65 42.403 Q 339.85 42.553 339.85 42.703 Q 339.85 42.853 339.675 43.003 Q 339.5 43.153 339.25 43.153 Z M 499.1 3.303 L 496.75 4.853 L 496.7 33.853 Q 496.7 37.253 494.75 39.903 Q 492.8 42.453 489.625 43.828 Q 486.45 45.203 482.8 45.203 Q 479.45 45.203 476.45 43.903 Q 473.35 42.553 471.475 39.853 Q 469.6 37.153 469.35 33.353 Q 469.35 30.753 470.5 29.378 Q 471.65 28.003 473.65 28.003 Q 475.4 28.003 476.7 29.278 Q 478 30.553 478 32.353 Q 478 34.153 476.7 35.453 Q 475.4 36.753 473.65 36.753 Q 472.8 36.753 472.4 36.553 Q 473.85 38.303 476.05 39.253 Q 478.25 40.203 480.65 40.203 Q 482.95 40.203 484.95 39.453 Q 486.95 38.653 488.125 37.178 Q 489.3 35.703 489.3 33.853 L 489.2 4.553 L 487.45 3.303 Q 487.25 3.153 487.25 3.003 Q 487.25 2.803 487.475 2.653 Q 487.7 2.503 488 2.503 L 498.6 2.503 Q 498.95 2.503 499.15 2.628 Q 499.35 2.753 499.35 2.953 Q 499.35 3.153 499.1 3.303 Z M 373.05 15.353 L 370.8 16.853 L 356.85 40.403 L 367.35 40.403 Q 369.15 40.403 370.35 38.803 L 371.85 36.453 Q 372 36.253 372.2 36.253 Q 372.4 36.253 372.525 36.428 A 0.803 0.803 0 0 1 372.65 36.903 L 372.65 42.753 Q 372.65 42.953 372.525 43.078 Q 372.4 43.203 372.2 43.203 L 348 43.203 Q 347.7 43.203 347.525 43.078 Q 347.35 42.953 347.35 42.753 Q 347.35 42.553 347.55 42.403 L 350.1 40.753 L 363.65 17.353 L 353.75 17.353 Q 352.85 17.353 352.05 17.778 Q 351.25 18.203 350.75 18.953 L 349.2 21.303 Q 349.05 21.503 348.9 21.503 Q 348.75 21.503 348.6 21.303 Q 348.45 21.103 348.45 20.853 L 348.4 15.003 Q 348.4 14.803 348.525 14.678 Q 348.65 14.553 348.85 14.553 L 372.6 14.553 A 0.803 0.803 0 0 1 373.075 14.678 Q 373.25 14.803 373.25 15.003 A 0.432 0.432 0 0 1 373.05 15.353 Z M 252.3 27.553 L 242.75 27.553 L 242.7 41.603 L 244.8 43.053 Q 245 43.203 245 43.403 Q 245 43.603 244.8 43.753 Q 244.6 43.903 244.3 43.903 L 233.65 43.903 Q 233.35 43.903 233.175 43.753 Q 233 43.603 233 43.403 Q 233 43.203 233.2 43.053 L 235.3 41.653 L 235.35 4.653 L 233.5 3.353 Q 233.3 3.203 233.3 3.003 Q 233.3 2.803 233.5 2.653 Q 233.7 2.503 234 2.503 L 253.05 2.453 Q 257.8 2.453 260.9 4.153 Q 263.95 5.853 265.45 8.803 Q 266.95 11.753 266.95 15.553 Q 266.95 21.203 263.25 24.378 Q 259.55 27.553 252.3 27.553 Z M 564.85 15.653 L 566.4 14.103 Q 566.55 13.953 566.65 13.953 Q 567 13.953 567 14.453 L 567 19.903 L 567.1 20.053 L 567 19.953 L 567 20.853 Q 567 21.203 566.8 21.328 A 0.25 0.25 0 0 1 566.667 21.37 A 0.361 0.361 0 0 1 566.4 21.203 Q 566.05 20.603 565.125 19.453 Q 564.2 18.303 563.65 17.903 Q 560.9 15.853 558.35 15.853 Q 555.75 15.853 553.75 17.703 Q 551.7 19.553 550.55 22.553 Q 549.4 25.553 549.4 28.803 Q 549.4 34.603 551.275 38.003 Q 553.15 41.403 556.75 41.403 Q 559.25 41.403 561.1 40.953 Q 564.95 39.903 567.4 34.603 Q 567.55 34.253 567.9 34.253 Q 568.2 34.253 568.325 34.453 A 0.497 0.497 0 0 1 568.394 34.722 A 1.034 1.034 0 0 1 568.35 35.003 Q 567 39.153 563.925 41.653 Q 560.85 44.153 556.75 44.153 Q 552.95 44.153 549.55 42.653 Q 546.05 41.103 544 37.653 Q 541.95 34.203 541.95 29.103 Q 541.95 24.303 544.05 20.703 Q 546.05 17.203 549.35 15.328 Q 552.65 13.453 556.35 13.453 Q 560.45 13.453 563.5 15.753 Q 563.7 15.953 564.1 15.953 Q 564.55 15.953 564.85 15.653 Z M 13.9 10.153 L 3.45 10.153 Q 3.2 10.153 3.075 9.928 A 0.524 0.524 0 0 1 3.006 9.67 A 0.583 0.583 0 0 1 3.05 9.453 L 4.3 7.553 Q 4.45 7.353 4.65 7.353 L 12.95 7.353 Q 15.05 5.653 15.8 4.903 Q 16.2 4.503 16.85 4.503 Q 17.6 4.503 18 5.053 Q 19.45 7.103 20 7.803 L 20.95 9.103 A 1.537 1.537 0 0 1 21.173 9.789 A 0.466 0.466 0 0 1 21.1 10.053 L 20.15 11.303 A 54.865 54.865 0 0 1 17.856 25.559 A 30.096 30.096 0 0 1 17.6 26.303 Q 20.7 29.653 21.45 32.553 Q 21.65 33.203 21.65 34.153 Q 21.65 35.753 20.775 36.803 Q 19.9 37.853 18.65 37.853 Q 17.55 37.853 16.65 37.003 Q 15.75 36.153 15.3 34.553 L 14.6 32.453 Q 12.3 35.853 8.95 38.528 Q 5.6 41.203 0.8 43.403 Q 0.5 43.503 0.45 43.503 Q 0 43.503 0 43.153 Q 0 42.953 0.35 42.653 Q 4.3 39.153 6.925 35.178 Q 9.55 31.203 11.15 26.103 Q 8.35 22.053 5.2 19.853 Q 5 19.703 5 19.453 Q 5 19.203 5.2 19.028 A 0.507 0.507 0 0 1 5.541 18.892 A 0.553 0.553 0 0 1 5.65 18.903 Q 9.05 19.753 12.3 21.853 Q 13.45 16.453 13.9 10.153 Z M 406.1 29.603 L 387.25 29.603 Q 387.4 35.053 389.3 38.253 Q 391.2 41.453 394.65 41.453 A 12.131 12.131 0 0 0 400.9 39.978 Q 403.4 38.503 405.85 34.553 Q 406.05 34.203 406.45 34.203 Q 406.7 34.203 406.825 34.403 A 0.497 0.497 0 0 1 406.894 34.672 A 1.034 1.034 0 0 1 406.85 34.953 Q 405.6 39.103 402.25 41.678 Q 398.9 44.253 394.65 44.253 Q 390.8 44.253 387.4 42.753 Q 383.85 41.153 381.8 37.653 Q 379.75 34.153 379.75 29.003 Q 379.75 24.603 381.55 21.103 Q 383.35 17.503 386.625 15.503 Q 389.9 13.503 394.15 13.503 Q 400.05 13.503 403.55 17.178 A 15.753 15.753 0 0 1 407.046 28.11 A 33.807 33.807 0 0 1 407.05 28.653 Q 407.05 29.053 406.775 29.328 Q 406.5 29.603 406.1 29.603 Z M 290 24.303 L 290 23.103 Q 290 20.853 287.9 19.403 Q 285.8 17.953 282.6 17.953 Q 278.7 17.953 275.15 20.153 Q 275.1 20.203 274.9 20.203 Q 274.65 20.203 274.5 19.953 A 0.413 0.413 0 0 1 274.436 19.739 A 0.457 0.457 0 0 1 274.55 19.453 Q 276.45 17.353 279.45 16.203 Q 282.45 15.053 285.8 15.053 Q 288.75 15.053 291.15 15.853 Q 293.7 16.703 295.175 18.253 Q 296.65 19.803 296.65 21.853 L 296.65 37.303 Q 296.65 38.503 297.05 39.128 A 1.285 1.285 0 0 0 298.2 39.753 Q 299.1 39.753 300.25 38.853 Q 301.4 37.953 302.3 36.453 Q 302.45 36.253 302.65 36.253 Q 302.85 36.253 303 36.403 Q 303.15 36.553 303.1 36.803 Q 302.65 39.003 301.35 40.703 Q 300.05 42.253 298.35 43.078 Q 296.65 43.903 294.85 43.903 Q 293.45 43.903 292.325 43.378 Q 291.2 42.853 290.6 41.803 Q 286.95 43.653 283.05 43.653 Q 278.9 43.653 276.175 41.703 Q 273.45 39.753 273.45 36.553 Q 273.45 31.903 277.975 28.728 Q 282.5 25.553 290 24.303 Z M 523.35 24.303 L 523.35 23.103 Q 523.35 20.853 521.25 19.403 Q 519.15 17.953 515.95 17.953 Q 512.05 17.953 508.5 20.153 Q 508.45 20.203 508.25 20.203 Q 508 20.203 507.85 19.953 A 0.413 0.413 0 0 1 507.786 19.739 A 0.457 0.457 0 0 1 507.9 19.453 Q 509.8 17.353 512.8 16.203 Q 515.8 15.053 519.15 15.053 Q 522.1 15.053 524.5 15.853 Q 527.05 16.703 528.525 18.253 Q 530 19.803 530 21.853 L 530 37.303 Q 530 38.503 530.4 39.128 A 1.285 1.285 0 0 0 531.55 39.753 Q 532.45 39.753 533.6 38.853 Q 534.75 37.953 535.65 36.453 Q 535.8 36.253 536 36.253 Q 536.2 36.253 536.35 36.403 Q 536.5 36.553 536.45 36.803 Q 536 39.003 534.7 40.703 Q 533.4 42.253 531.7 43.078 Q 530 43.903 528.2 43.903 Q 526.8 43.903 525.675 43.378 Q 524.55 42.853 523.95 41.803 Q 520.3 43.653 516.4 43.653 Q 512.25 43.653 509.525 41.703 Q 506.8 39.753 506.8 36.553 Q 506.8 31.903 511.325 28.728 Q 515.85 25.553 523.35 24.303 Z M 423.75 24.603 L 422.85 25.603 L 422.8 40.853 L 424.7 42.203 Q 424.9 42.353 424.9 42.503 Q 424.9 42.653 424.7 42.803 Q 424.5 42.953 424.25 42.953 L 414.7 42.953 Q 414.25 42.953 414.1 42.678 Q 413.95 42.403 414.25 42.203 L 416.15 40.903 L 416.1 16.003 L 414.5 14.853 Q 414.3 14.703 414.3 14.553 Q 414.3 14.353 414.475 14.228 A 0.803 0.803 0 0 1 414.95 14.103 L 424.5 14.103 Q 424.95 14.103 425.1 14.378 Q 425.25 14.653 424.95 14.853 L 422.85 16.253 L 422.85 21.753 Q 426.15 18.603 429.75 16.903 A 15.464 15.464 0 0 1 436.408 15.341 A 14.406 14.406 0 0 1 437 15.353 Q 438.8 15.403 439.95 16.653 Q 441.1 17.903 441.1 19.703 Q 441.1 21.353 439.925 22.503 Q 438.75 23.653 437.1 23.653 Q 435.45 23.653 434.3 22.503 Q 433.15 21.353 433.15 19.703 Q 433.15 18.853 433.45 18.103 Q 431.25 18.503 429.65 19.403 Q 428.1 20.253 426.925 21.328 Q 425.75 22.403 423.75 24.603 Z M 18.8 45.053 L 18.7 45.053 Q 18.45 45.053 18.375 44.828 A 0.37 0.37 0 0 1 18.355 44.711 A 0.317 0.317 0 0 1 18.5 44.453 Q 23 40.703 25.25 36.503 Q 27.4 32.503 28.3 27.303 Q 29.2 22.103 29.65 12.453 Q 29.65 12.253 29.75 12.103 Q 29.85 11.953 30 11.953 L 36.4 12.403 L 36.45 12.403 Q 36.65 12.403 36.75 12.653 Q 36.85 12.903 36.75 13.103 L 36 14.003 A 98.303 98.303 0 0 1 34.742 25.498 A 40.931 40.931 0 0 1 34.5 26.703 Q 36.4 31.853 39.125 34.703 Q 41.85 37.553 46.45 39.453 Q 46.7 39.603 46.7 39.853 Q 46.7 40.153 46.45 40.253 Q 45.25 40.903 43.975 42.278 Q 42.7 43.653 41.85 45.353 A 0.587 0.587 0 0 1 41.493 45.644 A 0.128 0.128 0 0 1 41.4 45.603 Q 38.15 42.703 36.2 39.453 Q 34.25 36.203 33.1 31.503 Q 31.25 36.403 27.85 39.703 Q 24.45 43.003 18.8 45.053 Z M 22.95 3.303 L 22.95 1.803 Q 22.95 1.653 23.05 1.528 Q 23.15 1.403 23.3 1.403 L 29.7 2.253 L 29.75 2.253 Q 29.95 2.253 30.05 2.428 Q 30.15 2.603 30.05 2.803 L 29.15 3.753 Q 28.8 6.453 28.5 7.903 L 39.6 7.903 Q 41.45 6.653 42.3 5.903 Q 42.6 5.603 43 5.603 Q 43.45 5.603 43.85 6.053 L 46.15 10.353 Q 46.45 10.803 46.3 11.303 Q 44.8 15.153 42.525 18.403 Q 40.25 21.653 38 22.953 Q 37.95 23.003 37.75 23.003 Q 37.5 23.003 37.375 22.778 Q 37.25 22.553 37.4 22.303 Q 38.25 21.003 38.95 17.503 Q 39.65 14.003 39.75 10.703 L 27.8 10.703 Q 25.45 18.603 20.65 22.653 Q 20.6 22.703 20.5 22.703 Q 20.35 22.703 20.275 22.578 Q 20.2 22.453 20.25 22.253 Q 21.55 19.353 22.25 14.178 Q 22.95 9.003 22.95 3.303 Z M 195.25 3.253 L 194.25 3.853 L 194.25 41.653 Q 194.25 43.553 193.225 44.703 Q 192.2 45.853 190.75 45.853 Q 189.45 45.853 188.6 44.953 Q 186.6 42.803 183.2 40.453 Q 183 40.303 183 40.103 Q 183 39.553 183.55 39.653 L 185.15 39.903 Q 187.05 40.203 187.45 40.203 Q 188.6 40.203 188.6 39.353 L 188.6 2.903 Q 188.6 2.703 188.725 2.553 Q 188.85 2.403 189.05 2.403 L 194.9 2.403 Q 195.1 2.403 195.25 2.553 Q 195.4 2.703 195.4 2.903 Q 195.4 3.103 195.25 3.253 Z M 177.85 28.653 L 177.9 4.853 Q 177.9 4.653 178 4.528 A 0.308 0.308 0 0 1 178.25 4.403 L 184.75 4.403 Q 184.9 4.403 184.975 4.628 A 0.593 0.593 0 0 1 185.007 4.816 A 0.523 0.523 0 0 1 184.95 5.053 L 183.95 5.853 L 183.95 30.003 Q 183.95 31.503 183.425 32.278 Q 182.9 33.053 182 33.053 Q 181.1 33.053 180.125 32.378 Q 179.15 31.703 178.5 30.653 Q 177.85 29.603 177.85 28.653 Z M 252.95 5.153 L 242.8 5.153 L 242.75 24.803 L 252.2 24.803 Q 255.5 24.803 257.25 21.928 Q 259 19.053 259 14.903 Q 259 10.703 257.45 7.928 Q 255.9 5.153 252.95 5.153 Z M 88.75 24.803 L 88.75 6.053 L 85.1 6.053 L 85.1 25.053 L 85.3 25.053 L 87.15 25.403 Q 88 25.603 88.3 25.603 Q 88.6 25.603 88.675 25.428 Q 88.75 25.253 88.75 24.803 Z M 387.5 26.703 L 400.6 26.703 Q 400.3 21.603 398.85 18.803 Q 397.4 16.003 394.15 16.003 Q 390.85 16.003 389.225 18.878 Q 387.6 21.753 387.3 26.753 Q 387.35 26.703 387.5 26.703 Z M 290 39.553 L 290 26.653 Q 285.3 27.803 282.825 30.228 Q 280.35 32.653 280.35 35.953 Q 280.35 38.153 281.55 39.303 Q 282.75 40.453 285.05 40.453 Q 287.1 40.453 290 39.553 Z M 523.35 39.553 L 523.35 26.653 Q 518.65 27.803 516.175 30.228 Q 513.7 32.653 513.7 35.953 Q 513.7 38.153 514.9 39.303 Q 516.1 40.453 518.4 40.453 Q 520.45 40.453 523.35 39.553 Z M 447.7 42.903 L 448.9 41.003 Q 449.05 40.753 449.3 40.753 L 461.15 40.753 Q 461.4 40.753 461.55 41.003 L 462.75 42.903 L 462.85 43.153 Q 462.85 43.303 462.725 43.428 Q 462.6 43.553 462.4 43.553 L 448.1 43.553 Q 447.8 43.553 447.675 43.353 Q 447.55 43.153 447.7 42.903 Z M 54.05 3.403 L 53.95 3.153 Q 53.95 2.903 54.125 2.778 A 0.445 0.445 0 0 1 54.388 2.689 A 0.462 0.462 0 0 1 54.5 2.703 Q 58.05 3.803 60.05 4.678 Q 62.05 5.553 63.15 6.578 Q 64.25 7.603 64.6 9.103 Q 64.7 9.503 64.7 10.053 Q 64.7 11.503 63.675 12.528 Q 62.65 13.553 61.3 13.553 Q 60.3 13.553 59.525 12.903 Q 58.75 12.253 58.4 11.053 Q 57.8 8.903 56.925 7.353 Q 56.05 5.803 54.05 3.403 Z M 133.55 9.753 L 126.45 9.753 L 126.45 20.703 L 127.15 20.703 Q 127.15 20.553 127.3 20.403 Q 129.1 18.853 130.2 17.353 Q 131.2 15.903 131.875 14.353 Q 132.55 12.803 133.55 9.753 Z"/></g></svg>