<svg width="44.045" height="44.765" viewBox="0 0 44.045 44.765" xmlns="http://www.w3.org/2000/svg"><g id="svgGroup" stroke-linecap="round" fill-rule="evenodd" font-size="9pt" stroke="#000000" stroke-width="0.25mm" fill="#000000" style="stroke:#000000;stroke-width:0.25mm;fill:#000000"><path d="M 43.594 19.401 L 28.494 19.401 Q 22.944 23.051 15.794 25.251 L 15.844 31.301 A 175.568 175.568 0 0 0 28.135 27.306 A 123.301 123.301 0 0 0 29.669 26.726 A 50.682 50.682 0 0 0 35.051 24.354 A 11.188 11.188 0 0 0 37.394 22.801 A 0.629 0.629 0 0 1 37.717 22.687 A 0.324 0.324 0 0 1 37.994 22.851 A 52.007 52.007 0 0 0 39.81 25.809 A 154.829 154.829 0 0 0 40.194 26.401 L 40.994 27.651 Q 41.594 28.501 41.994 29.301 Q 42.044 29.351 42.044 29.551 Q 42.044 29.951 41.744 29.951 L 40.044 30.201 A 23.903 23.903 0 0 1 36.87 30.807 Q 34.629 31.129 31.065 31.495 A 301.446 301.446 0 0 1 30.019 31.601 Q 21.944 32.401 15.844 32.701 L 15.844 35.651 Q 15.844 37.501 16.644 38.101 Q 17.444 38.701 19.594 38.701 L 22.644 38.701 Q 33.971 38.701 35.885 38.361 A 1.911 1.911 0 0 0 36.144 38.301 Q 37.394 37.901 38.194 37.001 Q 38.994 36.101 39.994 34.401 Q 40.694 33.301 41.044 32.801 Q 41.194 32.601 41.394 32.601 Q 41.644 32.601 41.794 32.776 Q 41.944 32.951 41.894 33.201 Q 41.144 36.801 41.144 38.251 Q 41.144 39.001 41.394 40.901 Q 41.444 41.051 41.444 41.551 Q 41.444 43.151 40.069 43.951 Q 38.694 44.751 36.144 44.751 L 18.244 44.751 A 12.369 12.369 0 0 1 12.233 43.519 A 6.557 6.557 0 0 1 11.794 43.251 Q 9.544 41.751 9.544 38.701 L 9.544 26.851 Q 5.944 27.601 1.194 28.101 L 1.144 28.101 Q 0.944 28.101 0.819 27.951 Q 0.694 27.801 0.694 27.601 Q 0.694 27.201 1.044 27.151 Q 11.194 23.801 18.494 19.401 L 0.444 19.401 Q 0.194 19.401 0.069 19.176 A 0.524 0.524 0 0 1 0 18.918 A 0.583 0.583 0 0 1 0.044 18.701 L 1.344 16.701 A 0.549 0.549 0 0 1 1.694 16.501 L 17.894 16.501 L 17.944 8.901 L 3.844 8.901 Q 3.594 8.901 3.469 8.651 A 0.486 0.486 0 0 1 3.413 8.434 A 0.381 0.381 0 0 1 3.494 8.201 L 4.744 6.201 Q 4.794 6.001 5.194 6.001 L 17.944 6.001 L 17.944 0.451 Q 17.944 0.251 18.094 0.126 Q 18.244 0.001 18.444 0.001 L 25.694 0.001 A 0.413 0.413 0 0 1 26.069 0.201 A 0.288 0.288 0 0 1 26.118 0.354 A 0.355 0.355 0 0 1 25.994 0.601 L 24.744 1.551 L 24.744 6.001 L 27.344 6.001 Q 28.844 5.151 30.794 3.401 Q 31.344 3.001 31.944 3.001 Q 32.744 3.001 33.144 3.551 L 33.244 3.651 L 33.544 2.801 Q 33.644 2.201 34.044 2.201 L 41.594 3.151 L 41.644 3.151 Q 41.944 3.151 42.094 3.376 Q 42.244 3.601 42.094 3.851 L 41.044 4.951 Q 38.044 11.601 32.394 16.501 L 34.844 16.501 Q 36.444 15.501 38.294 13.901 Q 38.644 13.551 39.344 13.551 Q 40.244 13.551 40.594 14.051 Q 41.044 14.801 42.644 16.901 Q 42.894 17.301 43.944 18.701 L 44.044 18.951 Q 44.044 19.151 43.919 19.276 Q 43.794 19.401 43.594 19.401 Z M 30.444 8.901 L 24.744 8.901 L 24.744 15.001 Q 28.294 11.951 30.444 8.901 Z"/></g></svg>