<svg width="390.594" height="45.771" viewBox="0 0 390.594 45.771" xmlns="http://www.w3.org/2000/svg"><g id="svgGroup" stroke-linecap="round" fill-rule="evenodd" font-size="9pt" stroke="#000000" stroke-width="0.25mm" fill="#000000" style="stroke:#000000;stroke-width:0.25mm;fill:#000000"><path d="M 43.594 19.62 L 28.494 19.62 Q 22.944 23.27 15.794 25.47 L 15.844 31.52 A 175.568 175.568 0 0 0 28.135 27.525 A 123.301 123.301 0 0 0 29.669 26.945 A 50.682 50.682 0 0 0 35.051 24.574 A 11.188 11.188 0 0 0 37.394 23.02 A 0.629 0.629 0 0 1 37.717 22.906 A 0.324 0.324 0 0 1 37.994 23.07 A 52.007 52.007 0 0 0 39.81 26.029 A 154.829 154.829 0 0 0 40.194 26.62 L 40.994 27.87 Q 41.594 28.72 41.994 29.52 Q 42.044 29.57 42.044 29.77 Q 42.044 30.17 41.744 30.17 L 40.044 30.42 A 23.903 23.903 0 0 1 36.87 31.026 Q 34.629 31.349 31.065 31.715 A 301.446 301.446 0 0 1 30.019 31.82 Q 21.944 32.62 15.844 32.92 L 15.844 35.87 Q 15.844 37.72 16.644 38.32 Q 17.444 38.92 19.594 38.92 L 22.644 38.92 Q 33.971 38.92 35.885 38.581 A 1.911 1.911 0 0 0 36.144 38.52 Q 37.394 38.12 38.194 37.22 Q 38.994 36.32 39.994 34.62 Q 40.694 33.52 41.044 33.02 Q 41.194 32.82 41.394 32.82 Q 41.644 32.82 41.794 32.995 Q 41.944 33.17 41.894 33.42 Q 41.144 37.02 41.144 38.47 Q 41.144 39.22 41.394 41.12 Q 41.444 41.27 41.444 41.77 Q 41.444 43.37 40.069 44.17 Q 38.694 44.97 36.144 44.97 L 18.244 44.97 A 12.369 12.369 0 0 1 12.233 43.738 A 6.557 6.557 0 0 1 11.794 43.47 Q 9.544 41.97 9.544 38.92 L 9.544 27.07 Q 5.944 27.82 1.194 28.32 L 1.144 28.32 Q 0.944 28.32 0.819 28.17 Q 0.694 28.02 0.694 27.82 Q 0.694 27.42 1.044 27.37 Q 11.194 24.02 18.494 19.62 L 0.444 19.62 Q 0.194 19.62 0.069 19.395 A 0.524 0.524 0 0 1 0 19.137 A 0.583 0.583 0 0 1 0.044 18.92 L 1.344 16.92 A 0.549 0.549 0 0 1 1.694 16.72 L 17.894 16.72 L 17.944 9.12 L 3.844 9.12 Q 3.594 9.12 3.469 8.87 A 0.486 0.486 0 0 1 3.413 8.653 A 0.381 0.381 0 0 1 3.494 8.42 L 4.744 6.42 Q 4.794 6.22 5.194 6.22 L 17.944 6.22 L 17.944 0.67 Q 17.944 0.47 18.094 0.345 Q 18.244 0.22 18.444 0.22 L 25.694 0.22 A 0.413 0.413 0 0 1 26.069 0.42 A 0.288 0.288 0 0 1 26.118 0.574 A 0.355 0.355 0 0 1 25.994 0.82 L 24.744 1.77 L 24.744 6.22 L 27.344 6.22 Q 28.844 5.37 30.794 3.62 Q 31.344 3.22 31.944 3.22 Q 32.744 3.22 33.144 3.77 L 33.244 3.87 L 33.544 3.02 Q 33.644 2.42 34.044 2.42 L 41.594 3.37 L 41.644 3.37 Q 41.944 3.37 42.094 3.595 Q 42.244 3.82 42.094 4.07 L 41.044 5.17 Q 38.044 11.82 32.394 16.72 L 34.844 16.72 Q 36.444 15.72 38.294 14.12 Q 38.644 13.77 39.344 13.77 Q 40.244 13.77 40.594 14.27 Q 41.044 15.02 42.644 17.12 Q 42.894 17.52 43.944 18.92 L 44.044 19.17 Q 44.044 19.37 43.919 19.495 Q 43.794 19.62 43.594 19.62 Z M 94.444 14.07 L 94.094 15.62 Q 93.894 16.37 93.894 16.72 Q 93.894 17.22 94.094 18.22 Q 94.144 18.37 94.144 18.77 Q 94.144 20.07 93.144 20.72 Q 92.144 21.37 90.294 21.37 Q 86.894 21.37 84.844 20.12 Q 82.794 18.87 82.794 16.52 L 82.794 5.72 L 77.094 5.72 Q 76.944 9.37 76.344 12.17 Q 75.694 15.17 73.719 17.67 Q 71.744 20.17 68.344 21.57 A 0.548 0.548 0 0 1 68.178 21.603 A 0.118 0.118 0 0 1 68.044 21.47 L 68.044 41.57 Q 68.044 43.47 67.119 44.62 Q 66.194 45.77 64.894 45.77 Q 63.744 45.77 63.044 44.87 Q 61.194 42.47 58.694 40.42 Q 58.494 40.27 58.494 40.07 Q 58.494 39.82 58.619 39.67 Q 58.744 39.52 58.944 39.57 Q 58.744 39.52 60.244 39.82 Q 61.844 40.12 62.144 40.12 Q 63.044 40.12 63.044 39.27 L 63.044 36.12 Q 62.744 36.87 62.044 37.345 Q 61.344 37.82 60.594 37.82 Q 59.694 37.82 59.094 37.22 Q 58.494 36.62 58.394 35.47 Q 58.194 33.27 57.819 31.845 Q 57.444 30.42 56.594 28.97 Q 55.844 35.27 53.794 39.17 Q 51.744 43.07 47.644 45.57 L 47.544 45.57 A 0.187 0.187 0 0 1 47.394 45.395 A 0.414 0.414 0 0 1 47.378 45.281 A 0.374 0.374 0 0 1 47.444 45.07 Q 49.794 41.52 50.744 37.545 A 43.431 43.431 0 0 0 51.659 31.277 A 100.48 100.48 0 0 0 51.944 26.27 L 48.994 26.27 Q 48.794 26.27 48.719 26.02 A 0.713 0.713 0 0 1 48.687 25.815 A 0.54 0.54 0 0 1 48.744 25.57 L 49.544 23.62 Q 49.644 23.37 49.794 23.37 L 52.044 23.37 L 52.144 9.22 L 51.344 7.97 A 0.824 0.824 0 0 1 51.455 7.485 A 0.282 0.282 0 0 1 51.694 7.37 L 56.344 7.77 Q 57.244 5.82 57.844 4.17 Q 58.444 2.52 58.994 0.27 Q 59.044 0.12 59.194 0.045 Q 59.344 -0.03 59.444 0.02 Q 62.194 1.42 64.644 2.27 Q 64.844 2.32 64.869 2.57 Q 64.894 2.82 64.744 2.97 L 63.794 3.27 Q 61.494 6.12 59.394 7.87 L 62.394 7.87 Q 63.844 6.62 64.694 5.77 Q 65.244 5.37 65.744 5.37 Q 66.444 5.37 66.844 5.92 Q 67.344 6.77 68.994 9.97 Q 69.094 10.07 69.094 10.27 Q 69.094 10.57 68.844 10.82 Q 68.644 10.97 68.044 11.92 L 68.044 21.32 L 68.144 21.12 Q 69.844 19.07 70.444 15.97 Q 71.044 12.87 71.044 7.52 L 70.994 2.37 Q 70.994 2.17 71.144 2.045 Q 71.294 1.92 71.494 1.92 L 77.344 2.82 L 82.744 2.82 Q 83.744 2.22 84.894 1.27 Q 85.344 0.97 85.894 0.97 A 1.01 1.01 0 0 1 86.794 1.42 A 53.763 53.763 0 0 0 88.11 3.228 A 2.906 2.906 0 0 0 88.144 3.27 A 40.8 40.8 0 0 1 89.085 4.603 A 0.271 0.271 0 0 1 89.094 4.62 Q 89.494 5.07 89.544 5.27 Q 89.594 5.47 89.444 5.72 Q 89.144 6.02 88.844 6.22 L 88.844 14.77 Q 88.844 15.92 89.094 16.42 Q 89.344 16.87 89.794 16.87 Q 91.094 16.87 91.819 16.27 Q 92.544 15.67 93.069 14.92 Q 93.594 14.17 93.844 13.82 Q 93.994 13.67 94.144 13.67 Q 94.294 13.67 94.394 13.795 A 0.28 0.28 0 0 1 94.461 13.973 A 0.307 0.307 0 0 1 94.444 14.07 Z M 143.844 22.67 L 143.944 22.97 Q 143.944 23.12 143.844 23.245 Q 143.744 23.37 143.544 23.37 L 119.194 23.37 A 32.857 32.857 0 0 0 128.436 31.601 A 24.56 24.56 0 0 0 128.919 31.87 A 36.887 36.887 0 0 0 139.029 35.364 A 57.328 57.328 0 0 0 141.844 35.87 Q 142.044 35.87 142.169 36.02 Q 142.294 36.17 142.294 36.42 Q 142.294 36.62 142.094 36.77 Q 140.394 37.82 139.794 39.72 A 13.397 13.397 0 0 0 139.28 43.712 A 23.461 23.461 0 0 0 139.294 44.52 Q 139.294 44.72 139.119 44.87 Q 138.944 45.02 138.694 44.97 Q 134.794 43.32 130.944 40.52 Q 126.594 37.32 123.219 32.97 Q 119.844 28.62 118.294 23.62 Q 118.194 23.47 118.294 23.37 L 116.244 23.37 L 116.244 38.47 Q 121.444 38.32 125.394 37.32 L 125.494 37.32 Q 125.744 37.32 125.844 37.62 A 0.598 0.598 0 0 1 125.878 37.809 A 0.426 0.426 0 0 1 125.744 38.12 A 25.198 25.198 0 0 1 120.188 41.131 A 56.577 56.577 0 0 1 116.669 42.445 A 60.381 60.381 0 0 1 107.08 44.941 A 37.355 37.355 0 0 1 105.844 45.12 L 105.744 45.12 Q 105.544 45.12 105.444 44.82 L 103.444 38.57 L 103.444 38.42 Q 103.444 38.27 103.569 38.145 Q 103.694 38.02 103.844 38.02 Q 107.944 38.32 109.894 38.42 L 109.894 23.37 L 101.894 23.37 Q 101.644 23.37 101.494 23.12 A 0.4 0.4 0 0 1 101.43 22.915 A 0.343 0.343 0 0 1 101.544 22.67 L 102.694 20.77 Q 102.744 20.57 103.044 20.57 L 109.944 20.57 L 109.944 2.12 Q 109.944 1.97 110.069 1.82 Q 110.194 1.67 110.344 1.67 L 117.144 1.67 Q 117.344 1.67 117.444 1.895 Q 117.544 2.12 117.394 2.27 L 116.244 3.22 L 116.244 20.57 L 136.144 20.57 L 138.744 18.02 Q 139.294 17.62 139.794 17.62 Q 140.594 17.62 140.894 18.17 L 143.844 22.67 Z M 224.044 5.37 L 201.144 40.62 L 219.594 40.62 Q 220.544 40.62 221.419 40.17 Q 222.294 39.72 222.744 38.87 L 224.394 36.47 Q 224.544 36.27 224.694 36.27 Q 224.844 36.27 224.994 36.47 Q 225.144 36.67 225.144 36.97 L 225.244 43.12 Q 225.244 43.32 225.094 43.445 Q 224.944 43.57 224.744 43.57 L 191.294 43.57 Q 190.994 43.57 190.794 43.42 Q 190.594 43.27 190.594 43.07 Q 190.594 42.87 190.794 42.72 L 191.944 41.97 L 214.644 6.47 L 197.244 6.47 Q 196.294 6.47 195.469 6.92 Q 194.644 7.37 194.094 8.17 Q 192.744 10.27 192.544 10.62 Q 192.394 10.82 192.194 10.82 Q 191.994 10.82 191.844 10.62 Q 191.694 10.42 191.694 10.17 L 191.694 4.02 Q 191.694 3.82 191.819 3.67 Q 191.944 3.52 192.144 3.52 L 225.144 3.52 Q 225.594 3.52 225.769 3.82 A 0.415 0.415 0 0 1 225.834 4.027 A 0.356 0.356 0 0 1 225.644 4.32 Q 224.644 4.92 224.044 5.37 Z M 389.944 43.42 L 380.094 43.42 Q 379.694 43.42 379.519 43.145 A 0.361 0.361 0 0 1 379.455 42.953 A 0.35 0.35 0 0 1 379.644 42.67 L 380.994 41.82 L 373.694 28.62 L 369.644 33.02 L 369.644 41.37 L 371.594 42.72 Q 371.794 42.87 371.794 43.02 A 0.432 0.432 0 0 1 371.594 43.37 Q 371.394 43.52 371.144 43.52 L 361.294 43.52 Q 360.994 43.52 360.819 43.395 Q 360.644 43.27 360.644 43.07 Q 360.644 42.87 360.844 42.72 L 362.794 41.42 L 362.744 8.12 L 361.094 6.97 Q 360.894 6.82 360.894 6.62 Q 360.894 6.42 361.069 6.295 Q 361.244 6.17 361.544 6.17 L 371.394 6.17 Q 371.794 6.17 371.969 6.47 A 0.415 0.415 0 0 1 372.034 6.677 A 0.356 0.356 0 0 1 371.844 6.97 L 369.694 8.37 L 369.644 27.97 L 377.894 19.07 Q 378.494 18.52 378.494 17.72 A 1.683 1.683 0 0 0 377.744 16.22 L 376.644 15.42 Q 376.444 15.27 376.444 15.12 Q 376.444 14.92 376.619 14.795 A 0.803 0.803 0 0 1 377.094 14.67 L 386.944 14.67 Q 387.344 14.67 387.519 14.945 A 0.328 0.328 0 0 1 387.578 15.12 A 0.371 0.371 0 0 1 387.344 15.42 L 383.844 17.77 L 383.044 18.37 L 377.944 23.97 L 387.644 40.77 L 390.394 42.67 Q 390.594 42.82 390.594 42.97 Q 390.594 43.17 390.419 43.295 Q 390.244 43.42 389.944 43.42 Z M 284.344 3.07 L 281.994 4.62 L 281.944 33.62 Q 281.944 37.02 279.994 39.67 Q 278.044 42.22 274.869 43.595 Q 271.694 44.97 268.044 44.97 Q 264.694 44.97 261.694 43.67 Q 258.594 42.32 256.719 39.62 Q 254.844 36.92 254.594 33.12 Q 254.594 30.52 255.744 29.145 Q 256.894 27.77 258.894 27.77 Q 260.644 27.77 261.944 29.045 Q 263.244 30.32 263.244 32.12 Q 263.244 33.92 261.944 35.22 Q 260.644 36.52 258.894 36.52 Q 258.044 36.52 257.644 36.32 Q 259.094 38.07 261.294 39.02 Q 263.494 39.97 265.894 39.97 Q 268.194 39.97 270.194 39.22 Q 272.194 38.42 273.369 36.945 Q 274.544 35.47 274.544 33.62 L 274.444 4.32 L 272.694 3.07 Q 272.494 2.92 272.494 2.77 Q 272.494 2.57 272.719 2.42 Q 272.944 2.27 273.244 2.27 L 283.844 2.27 Q 284.194 2.27 284.394 2.395 Q 284.594 2.52 284.594 2.72 Q 284.594 2.92 284.344 3.07 Z M 169.944 27.32 L 160.394 27.32 L 160.344 41.37 L 162.444 42.82 Q 162.644 42.97 162.644 43.17 Q 162.644 43.37 162.444 43.52 Q 162.244 43.67 161.944 43.67 L 151.294 43.67 Q 150.994 43.67 150.819 43.52 Q 150.644 43.37 150.644 43.17 Q 150.644 42.97 150.844 42.82 L 152.944 41.42 L 152.994 4.42 L 151.144 3.12 Q 150.944 2.97 150.944 2.77 Q 150.944 2.57 151.144 2.42 Q 151.344 2.27 151.644 2.27 L 170.694 2.22 Q 175.444 2.22 178.544 3.92 Q 181.594 5.62 183.094 8.57 Q 184.594 11.52 184.594 15.32 Q 184.594 20.97 180.894 24.145 A 14.236 14.236 0 0 1 172.959 27.167 A 28.157 28.157 0 0 1 169.944 27.32 Z M 350.094 15.42 L 351.644 13.87 Q 351.794 13.72 351.894 13.72 Q 352.244 13.72 352.244 14.22 L 352.244 19.67 L 352.344 19.82 L 352.244 19.72 L 352.244 20.62 Q 352.244 20.97 352.044 21.095 A 0.25 0.25 0 0 1 351.911 21.137 A 0.361 0.361 0 0 1 351.644 20.97 Q 351.294 20.37 350.369 19.22 Q 349.444 18.07 348.894 17.67 Q 346.144 15.62 343.594 15.62 Q 340.994 15.62 338.994 17.47 Q 336.944 19.32 335.794 22.32 Q 334.644 25.32 334.644 28.57 A 21.673 21.673 0 0 0 335.835 36.29 A 11.907 11.907 0 0 0 336.519 37.77 Q 338.394 41.17 341.994 41.17 Q 344.494 41.17 346.344 40.72 A 9.475 9.475 0 0 0 351.928 35.777 A 19.834 19.834 0 0 0 352.644 34.37 Q 352.794 34.02 353.144 34.02 Q 353.444 34.02 353.569 34.22 A 0.497 0.497 0 0 1 353.639 34.489 A 1.034 1.034 0 0 1 353.594 34.77 Q 352.244 38.92 349.169 41.42 Q 346.094 43.92 341.994 43.92 Q 338.194 43.92 334.794 42.42 Q 331.294 40.87 329.244 37.42 Q 327.194 33.97 327.194 28.87 Q 327.194 24.07 329.294 20.47 Q 331.294 16.97 334.594 15.095 Q 337.894 13.22 341.594 13.22 Q 345.694 13.22 348.744 15.52 Q 348.944 15.72 349.344 15.72 Q 349.794 15.72 350.094 15.42 Z M 308.594 24.07 L 308.594 22.87 Q 308.594 20.62 306.494 19.17 Q 304.394 17.72 301.194 17.72 Q 297.294 17.72 293.744 19.92 Q 293.694 19.97 293.494 19.97 Q 293.244 19.97 293.094 19.72 A 0.413 0.413 0 0 1 293.03 19.506 A 0.457 0.457 0 0 1 293.144 19.22 Q 295.044 17.12 298.044 15.97 Q 301.044 14.82 304.394 14.82 Q 307.344 14.82 309.744 15.62 Q 312.294 16.47 313.769 18.02 Q 315.244 19.57 315.244 21.62 L 315.244 37.07 Q 315.244 38.27 315.644 38.895 A 1.285 1.285 0 0 0 316.794 39.52 Q 317.694 39.52 318.844 38.62 Q 319.994 37.72 320.894 36.22 Q 321.044 36.02 321.244 36.02 Q 321.444 36.02 321.594 36.17 Q 321.744 36.32 321.694 36.57 Q 321.244 38.77 319.944 40.47 Q 318.644 42.02 316.944 42.845 Q 315.244 43.67 313.444 43.67 Q 312.044 43.67 310.919 43.145 Q 309.794 42.62 309.194 41.57 Q 305.544 43.42 301.644 43.42 Q 297.494 43.42 294.769 41.47 Q 292.044 39.52 292.044 36.32 Q 292.044 31.67 296.569 28.495 A 26.547 26.547 0 0 1 305.887 24.606 A 43.942 43.942 0 0 1 308.594 24.07 Z M 92.244 27.57 L 90.794 28.57 L 90.794 42.32 Q 90.794 43.67 89.744 44.57 Q 88.694 45.47 87.394 45.47 Q 86.394 45.47 85.794 44.92 Q 85.194 44.37 85.194 43.37 L 85.194 42.72 L 76.394 42.72 Q 76.294 44.02 75.294 44.895 Q 74.294 45.77 73.044 45.77 Q 72.044 45.77 71.419 45.07 Q 70.794 44.37 70.794 43.07 L 70.794 25.32 L 69.644 24.42 Q 69.444 24.27 69.444 24.12 Q 69.444 23.97 69.594 23.87 Q 69.744 23.77 69.894 23.77 L 75.644 24.52 L 84.744 24.52 Q 86.044 23.72 87.344 22.42 Q 87.694 22.07 88.244 22.07 Q 89.044 22.07 89.344 22.62 Q 89.844 23.32 90.344 23.82 Q 91.644 25.37 92.344 26.62 Q 92.494 26.92 92.494 27.07 Q 92.494 27.32 92.244 27.57 Z M 170.594 4.92 L 160.444 4.92 L 160.394 24.57 L 169.844 24.57 Q 173.144 24.57 174.894 21.695 Q 176.644 18.82 176.644 14.67 Q 176.644 10.47 175.094 7.695 Q 173.544 4.92 170.594 4.92 Z M 132.544 2.12 L 133.394 2.72 Q 133.694 2.92 135.494 4.22 Q 137.294 5.52 139.044 6.47 Q 139.244 6.62 139.244 6.92 Q 139.244 7.22 138.994 7.37 L 137.844 7.57 A 66.898 66.898 0 0 1 131.57 13.626 A 33.254 33.254 0 0 1 129.069 15.52 Q 125.244 18.12 120.144 19.22 L 119.944 19.22 A 0.509 0.509 0 0 1 119.344 18.67 A 0.48 0.48 0 0 1 119.644 18.22 Q 123.244 15.62 126.244 11.745 Q 129.244 7.87 131.844 2.27 Q 132.094 1.82 132.544 2.12 Z M 85.244 27.52 L 85.244 27.37 L 76.394 27.37 L 76.394 39.87 L 85.194 39.87 L 85.244 27.52 Z M 308.594 39.32 L 308.594 26.42 Q 303.894 27.57 301.419 29.995 Q 298.944 32.42 298.944 35.72 Q 298.944 37.92 300.144 39.07 Q 301.344 40.22 303.644 40.22 Q 305.694 40.22 308.594 39.32 Z M 232.944 42.67 L 234.144 40.77 Q 234.294 40.52 234.544 40.52 L 246.394 40.52 Q 246.644 40.52 246.794 40.77 L 247.994 42.67 L 248.094 42.92 Q 248.094 43.07 247.969 43.195 Q 247.844 43.32 247.644 43.32 L 233.344 43.32 Q 233.044 43.32 232.919 43.12 Q 232.794 42.92 232.944 42.67 Z M 57.044 23.37 L 63.044 23.37 L 63.044 20.87 Q 62.694 21.47 62.094 21.82 Q 61.494 22.17 60.844 22.17 Q 60.044 22.17 59.469 21.595 Q 58.894 21.02 58.744 19.97 Q 58.494 18.12 58.144 16.845 Q 57.794 15.57 57.194 14.42 Q 57.194 19.32 57.044 23.37 Z M 63.044 33.32 L 63.044 26.27 L 56.844 26.27 L 56.744 27.37 A 14.748 14.748 0 0 1 61.903 31.202 A 6.68 6.68 0 0 1 63.044 33.32 Z M 63.044 17.47 L 63.044 10.72 L 57.194 10.72 L 57.194 12.32 Q 61.794 14.47 63.044 17.47 Z M 30.444 9.12 L 24.744 9.12 L 24.744 15.22 Q 28.294 12.17 30.444 9.12 Z"/></g></svg>