<svg width="47.083" height="45.771" viewBox="0 0 47.083 45.771" xmlns="http://www.w3.org/2000/svg"><g id="svgGroup" stroke-linecap="round" fill-rule="evenodd" font-size="9pt" stroke="#000000" stroke-width="0.25mm" fill="#000000" style="stroke:#000000;stroke-width:0.25mm;fill:#000000"><path d="M 47.067 14.07 L 46.717 15.62 Q 46.517 16.37 46.517 16.72 Q 46.517 17.22 46.717 18.22 Q 46.767 18.37 46.767 18.77 Q 46.767 20.07 45.767 20.72 Q 44.767 21.37 42.917 21.37 Q 39.517 21.37 37.467 20.12 Q 35.417 18.87 35.417 16.52 L 35.417 5.72 L 29.717 5.72 Q 29.567 9.37 28.967 12.17 Q 28.317 15.17 26.342 17.67 Q 24.367 20.17 20.967 21.57 A 0.548 0.548 0 0 1 20.8 21.603 A 0.118 0.118 0 0 1 20.667 21.47 L 20.667 41.57 Q 20.667 43.47 19.742 44.62 Q 18.817 45.77 17.517 45.77 Q 16.367 45.77 15.667 44.87 Q 13.817 42.47 11.317 40.42 Q 11.117 40.27 11.117 40.07 Q 11.117 39.82 11.242 39.67 Q 11.367 39.52 11.567 39.57 Q 11.367 39.52 12.867 39.82 Q 14.467 40.12 14.767 40.12 Q 15.667 40.12 15.667 39.27 L 15.667 36.12 Q 15.367 36.87 14.667 37.345 Q 13.967 37.82 13.217 37.82 Q 12.317 37.82 11.717 37.22 Q 11.117 36.62 11.017 35.47 Q 10.817 33.27 10.442 31.845 Q 10.067 30.42 9.217 28.97 Q 8.467 35.27 6.417 39.17 Q 4.367 43.07 0.267 45.57 L 0.167 45.57 A 0.187 0.187 0 0 1 0.017 45.395 A 0.414 0.414 0 0 1 0 45.281 A 0.374 0.374 0 0 1 0.067 45.07 Q 2.417 41.52 3.367 37.545 A 43.431 43.431 0 0 0 4.281 31.277 A 100.48 100.48 0 0 0 4.567 26.27 L 1.617 26.27 Q 1.417 26.27 1.342 26.02 A 0.713 0.713 0 0 1 1.31 25.815 A 0.54 0.54 0 0 1 1.367 25.57 L 2.167 23.62 Q 2.267 23.37 2.417 23.37 L 4.667 23.37 L 4.767 9.22 L 3.967 7.97 A 0.824 0.824 0 0 1 4.077 7.485 A 0.282 0.282 0 0 1 4.317 7.37 L 8.967 7.77 Q 9.867 5.82 10.467 4.17 Q 11.067 2.52 11.617 0.27 Q 11.667 0.12 11.817 0.045 Q 11.967 -0.03 12.067 0.02 Q 14.817 1.42 17.267 2.27 Q 17.467 2.32 17.492 2.57 Q 17.517 2.82 17.367 2.97 L 16.417 3.27 Q 14.117 6.12 12.017 7.87 L 15.017 7.87 Q 16.467 6.62 17.317 5.77 Q 17.867 5.37 18.367 5.37 Q 19.067 5.37 19.467 5.92 Q 19.967 6.77 21.617 9.97 Q 21.717 10.07 21.717 10.27 Q 21.717 10.57 21.467 10.82 Q 21.267 10.97 20.667 11.92 L 20.667 21.32 L 20.767 21.12 Q 22.467 19.07 23.067 15.97 Q 23.667 12.87 23.667 7.52 L 23.617 2.37 Q 23.617 2.17 23.767 2.045 Q 23.917 1.92 24.117 1.92 L 29.967 2.82 L 35.367 2.82 Q 36.367 2.22 37.517 1.27 Q 37.967 0.97 38.517 0.97 Q 39.117 0.97 39.417 1.42 A 53.763 53.763 0 0 0 40.732 3.228 A 2.906 2.906 0 0 0 40.767 3.27 A 40.8 40.8 0 0 1 41.707 4.603 A 0.271 0.271 0 0 1 41.717 4.62 Q 42.117 5.07 42.167 5.27 Q 42.217 5.47 42.067 5.72 Q 41.767 6.02 41.467 6.22 L 41.467 14.77 Q 41.467 15.92 41.717 16.42 Q 41.967 16.87 42.417 16.87 Q 43.717 16.87 44.442 16.27 Q 45.167 15.67 45.692 14.92 Q 46.217 14.17 46.467 13.82 Q 46.617 13.67 46.767 13.67 Q 46.917 13.67 47.017 13.795 A 0.28 0.28 0 0 1 47.083 13.973 A 0.307 0.307 0 0 1 47.067 14.07 Z M 44.867 27.57 L 43.417 28.57 L 43.417 42.32 Q 43.417 43.67 42.367 44.57 Q 41.317 45.47 40.017 45.47 Q 39.017 45.47 38.417 44.92 Q 37.817 44.37 37.817 43.37 L 37.817 42.72 L 29.017 42.72 Q 28.917 44.02 27.917 44.895 Q 26.917 45.77 25.667 45.77 Q 24.667 45.77 24.042 45.07 Q 23.417 44.37 23.417 43.07 L 23.417 25.32 L 22.267 24.42 Q 22.067 24.27 22.067 24.12 Q 22.067 23.97 22.217 23.87 Q 22.367 23.77 22.517 23.77 L 28.267 24.52 L 37.367 24.52 Q 38.667 23.72 39.967 22.42 Q 40.317 22.07 40.867 22.07 Q 41.667 22.07 41.967 22.62 Q 42.467 23.32 42.967 23.82 Q 44.267 25.37 44.967 26.62 Q 45.117 26.92 45.117 27.07 Q 45.117 27.32 44.867 27.57 Z M 37.867 27.52 L 37.867 27.37 L 29.017 27.37 L 29.017 39.87 L 37.817 39.87 L 37.867 27.52 Z M 9.667 23.37 L 15.667 23.37 L 15.667 20.87 Q 15.317 21.47 14.717 21.82 Q 14.117 22.17 13.467 22.17 Q 12.667 22.17 12.092 21.595 Q 11.517 21.02 11.367 19.97 Q 11.117 18.12 10.767 16.845 Q 10.417 15.57 9.817 14.42 Q 9.817 19.32 9.667 23.37 Z M 15.667 33.32 L 15.667 26.27 L 9.467 26.27 L 9.367 27.37 A 14.748 14.748 0 0 1 14.525 31.202 A 6.68 6.68 0 0 1 15.667 33.32 Z M 15.667 17.47 L 15.667 10.72 L 9.817 10.72 L 9.817 12.32 Q 14.417 14.47 15.667 17.47 Z"/></g></svg>